<svg xmlns="http://www.w3.org/2000/svg" xmlns:xlink="http://www.w3.org/1999/xlink" width="925.126" height="375.733" viewBox="0 0 925.126 375.733">
  <defs>
    <linearGradient id="linear-gradient" x1="0.5" y1="1" x2="0.5" gradientUnits="objectBoundingBox">
      <stop offset="0" stop-color="gray" stop-opacity="0.251"/>
      <stop offset="0.54" stop-color="gray" stop-opacity="0.122"/>
      <stop offset="1" stop-color="gray" stop-opacity="0.102"/>
    </linearGradient>
    <linearGradient id="linear-gradient-2" x1="0.5" y1="1.001" x2="0.5" y2="0" xlink:href="#linear-gradient"/>
    <radialGradient id="radial-gradient" cx="620.938" cy="268.99" r="4.882" gradientTransform="translate(0.432 0.391) scale(0.907 0.907)" gradientUnits="userSpaceOnUse">
      <stop offset="0" stop-color="#fff"/>
      <stop offset="1"/>
    </radialGradient>
    <radialGradient id="radial-gradient-2" cx="590.092" cy="268.99" r="4.882" gradientTransform="matrix(-0.907, 0, 0, 0.907, 8.852, 0.391)" xlink:href="#radial-gradient"/>
  </defs>
  <g id="Group_43" data-name="Group 43" transform="translate(-483 -283.25)">
    <g id="undraw_page_not_found_su7k" transform="translate(651.999 174)">
      <ellipse id="Ellipse_90" data-name="Ellipse 90" cx="371.154" cy="24.571" rx="371.154" ry="24.571" transform="translate(9.248 361.928)" fill="#f2f2f2"/>
      <path id="Path_127" data-name="Path 127" d="M539.717,324.894c-60.471,0-103.889,38.8-103.889,129.322,0,102.6,43.418,129.753,103.889,129.753s106.475-29.744,106.475-129.753C646.193,347.31,600.188,324.894,539.717,324.894Zm.4,225.02c-41.884,0-63.765-24.572-63.765-95.632,0-62.7,22.777-95.765,64.661-95.765s64.661,21.719,64.661,95.765C605.672,523.551,582,549.915,540.115,549.915Z" transform="translate(-173.541 -207.385)" fill="#2f2e41"/>
      <path id="Path_128" data-name="Path 128" d="M305.375,516.7h-25V443.074a14.745,14.745,0,0,0-14.745-14.745H259.77a14.745,14.745,0,0,0-14.745,14.745V516.7H174.5a8.417,8.417,0,0,1-7.443-12.35L241.7,363.079a14.745,14.745,0,0,0-6.741-20.221l-4.406-2.081a14.745,14.745,0,0,0-19.3,6.382l-91.034,170.3a19.994,19.994,0,0,0-2.361,9.426h0a19.994,19.994,0,0,0,19.994,19.994H245.025V593.43A17.674,17.674,0,0,0,262.7,611.1h0a17.674,17.674,0,0,0,17.674-17.674V546.875h25a15.088,15.088,0,0,0,15.088-15.087h0A15.088,15.088,0,0,0,305.375,516.7Z" transform="translate(-79.297 -211.673)" fill="#62bdb0"/>
      <path id="Path_129" data-name="Path 129" d="M963.372,516.7h-25V443.074a14.745,14.745,0,0,0-14.745-14.745h-5.859a14.745,14.745,0,0,0-14.745,14.745V516.7H832.5a8.417,8.417,0,0,1-7.443-12.35L899.7,363.079a14.745,14.745,0,0,0-6.741-20.221l-4.406-2.081a14.745,14.745,0,0,0-19.3,6.382l-91.034,170.3a19.994,19.994,0,0,0-2.361,9.426h0a19.994,19.994,0,0,0,19.994,19.994H903.021V593.43A17.674,17.674,0,0,0,920.7,611.1h0a17.674,17.674,0,0,0,17.674-17.674V546.875h25a15.088,15.088,0,0,0,15.088-15.088h0A15.088,15.088,0,0,0,963.372,516.7Z" transform="translate(-274.321 -211.673)" fill="#62bdb0"/>
      <path id="Path_130" data-name="Path 130" d="M315.178,504.446h-25V430.821a14.745,14.745,0,0,0-14.745-14.745h-5.859a14.745,14.745,0,0,0-14.745,14.745v73.625H184.3a8.417,8.417,0,0,1-7.443-12.35L251.5,350.825a14.745,14.745,0,0,0-6.741-20.221l-4.406-2.081a14.745,14.745,0,0,0-19.3,6.382L130.022,505.2a19.994,19.994,0,0,0-2.361,9.426h0a19.994,19.994,0,0,0,19.994,19.994H254.828v46.556A17.674,17.674,0,0,0,272.5,598.851h0a17.674,17.674,0,0,0,17.674-17.674V534.621h25a15.088,15.088,0,0,0,15.088-15.088h0a15.088,15.088,0,0,0-15.088-15.088Z" transform="translate(-82.203 -208.041)" fill="none" stroke="#3f3d56" stroke-miterlimit="10" stroke-width="1"/>
      <path id="Path_131" data-name="Path 131" d="M981.752,504.446h-25V430.821A14.745,14.745,0,0,0,942,416.076h-5.858A14.745,14.745,0,0,0,921.4,430.821v73.625H850.878a8.418,8.418,0,0,1-7.443-12.35l74.641-141.271a14.745,14.745,0,0,0-6.741-20.221l-4.406-2.081a14.745,14.745,0,0,0-19.3,6.382L796.6,505.2a19.993,19.993,0,0,0-2.361,9.426h0a19.994,19.994,0,0,0,19.994,19.994H921.4v46.556a17.674,17.674,0,0,0,17.674,17.674h0a17.674,17.674,0,0,0,17.674-17.674V534.621h25a15.088,15.088,0,0,0,15.088-15.088h0A15.088,15.088,0,0,0,981.752,504.446Z" transform="translate(-279.768 -208.041)" fill="none" stroke="#3f3d56" stroke-miterlimit="10" stroke-width="1"/>
      <path id="Path_132" data-name="Path 132" d="M559.323,313.866c-60.471,0-103.889,38.8-103.889,129.322,0,102.6,43.418,129.753,103.889,129.753S665.8,543.2,665.8,443.188C665.8,336.282,619.794,313.866,559.323,313.866Zm.4,225.02c-41.884,0-63.765-24.572-63.765-95.632,0-62.7,22.777-95.765,64.661-95.765s64.661,21.719,64.661,95.765c0,69.269-23.673,95.632-65.557,95.632Z" transform="translate(-179.351 -204.116)" fill="none" stroke="#3f3d56" stroke-miterlimit="10" stroke-width="1"/>
      <path id="Path_148" data-name="Path 148" d="M1065.855,565.468a14.644,14.644,0,1,0,1.95-28.085l.367,7.537-3.566-6.459a14.589,14.589,0,0,0-7.517,8.248,14.355,14.355,0,0,0-.842,3.961A14.641,14.641,0,0,0,1065.855,565.468Z" transform="translate(-357.415 -270.268)" fill="#57b894"/>
      <path id="Path_149" data-name="Path 149" d="M1093.833,647.585c-1.259-6.41,4.2-12.093,9.584-15.787s11.683-7.323,13.522-13.591c2.642-9.009-5.228-17.259-11.353-24.374a88.159,88.159,0,0,1-11.626-17.279,23.788,23.788,0,0,1-2.781-7.857c-.483-3.993.8-7.967,2.092-11.776q6.459-19.034,13.811-37.749" transform="translate(-367.749 -264.967)" fill="none" stroke="#3f3d56" stroke-miterlimit="10" stroke-width="1"/>
      <path id="Path_150" data-name="Path 150" d="M1066.712,562.71a14.644,14.644,0,1,0,1.95-28.085l.367,7.537-3.566-6.46a14.589,14.589,0,0,0-7.517,8.248,14.36,14.36,0,0,0-.842,3.961A14.641,14.641,0,0,0,1066.712,562.71Z" transform="translate(-357.669 -269.451)" fill="none" stroke="#3f3d56" stroke-miterlimit="10" stroke-width="1"/>
      <path id="Path_151" data-name="Path 151" d="M1092.081,511.409a14.627,14.627,0,0,1,10.54-9.286l1.206,7.165,2.235-7.526a14.642,14.642,0,1,1-13.981,9.646Z" transform="translate(-367.787 -259.807)" fill="#57b894"/>
      <path id="Path_152" data-name="Path 152" d="M1093.224,507.732a14.627,14.627,0,0,1,10.54-9.286l1.206,7.165,2.235-7.526a14.642,14.642,0,1,1-13.981,9.646Z" transform="translate(-368.125 -258.717)" fill="none" stroke="#3f3d56" stroke-miterlimit="10" stroke-width="1"/>
      <path id="Path_153" data-name="Path 153" d="M1103.978,613.52a14.642,14.642,0,0,0,12.96-26.049l-1.718,5.783L1114,586a.245.245,0,0,0-.037-.014,14.643,14.643,0,0,0-9.987,27.53Z" transform="translate(-368.712 -284.509)" fill="#57b894"/>
      <path id="Path_154" data-name="Path 154" d="M1104.969,609.8a14.642,14.642,0,0,0,12.96-26.049l-1.718,5.783-1.218-7.25a.252.252,0,0,0-.037-.014,14.643,14.643,0,0,0-9.987,27.53Z" transform="translate(-369.006 -283.405)" fill="none" stroke="#3f3d56" stroke-miterlimit="10" stroke-width="1"/>
      <path id="Path_155" data-name="Path 155" d="M1086.283,652.819a14.636,14.636,0,1,0,2.822-11.467l6.524,9.82-8.915-5.212a14.508,14.508,0,0,0-.432,6.859Z" transform="translate(-366.262 -299.489)" fill="#57b894"/>
      <path id="Path_156" data-name="Path 156" d="M1087.14,650.061a14.636,14.636,0,1,0,2.822-11.467l6.524,9.82-8.915-5.212a14.507,14.507,0,0,0-.432,6.859Z" transform="translate(-366.516 -298.671)" fill="none" stroke="#3f3d56" stroke-miterlimit="10" stroke-width="1"/>
      <path id="Path_157" data-name="Path 157" d="M69.392,620.271a9.621,9.621,0,1,0,1.281-18.452l.241,4.952-2.343-4.244a9.585,9.585,0,0,0-4.939,5.419,9.436,9.436,0,0,0-.553,2.6,9.619,9.619,0,0,0,6.313,9.722Z" transform="translate(-63.054 -289.399)" fill="#57b894"/>
      <path id="Path_158" data-name="Path 158" d="M87.774,674.223c-.827-4.212,2.757-7.945,6.3-10.372s7.676-4.811,8.884-8.93c1.736-5.919-3.435-11.34-7.459-16.014a57.925,57.925,0,0,1-7.639-11.353,15.627,15.627,0,0,1-1.827-5.162c-.317-2.624.526-5.234,1.375-7.737q4.243-12.506,9.074-24.8" transform="translate(-69.843 -285.916)" fill="none" stroke="#3f3d56" stroke-miterlimit="10" stroke-width="1"/>
      <path id="Path_159" data-name="Path 159" d="M69.955,618.459a9.621,9.621,0,1,0,1.281-18.452l.241,4.952-2.343-4.244a9.585,9.585,0,0,0-4.939,5.419,9.435,9.435,0,0,0-.553,2.6,9.619,9.619,0,0,0,6.313,9.722Z" transform="translate(-63.221 -288.862)" fill="none" stroke="#3f3d56" stroke-miterlimit="10" stroke-width="1"/>
      <path id="Path_160" data-name="Path 160" d="M86.623,584.754a9.61,9.61,0,0,1,6.925-6.1l.792,4.708,1.469-4.944a9.62,9.62,0,1,1-9.186,6.338Z" transform="translate(-69.868 -282.526)" fill="#57b894"/>
      <path id="Path_161" data-name="Path 161" d="M87.374,582.338a9.61,9.61,0,0,1,6.925-6.1l.792,4.708L96.56,576a9.62,9.62,0,1,1-9.186,6.338Z" transform="translate(-70.091 -281.81)" fill="none" stroke="#3f3d56" stroke-miterlimit="10" stroke-width="1"/>
      <path id="Path_162" data-name="Path 162" d="M94.44,651.843a9.62,9.62,0,0,0,8.515-17.115l-1.129,3.8-.8-4.763-.024-.009a9.621,9.621,0,0,0-6.562,18.088Z" transform="translate(-70.476 -298.756)" fill="#57b894"/>
      <path id="Path_163" data-name="Path 163" d="M95.09,649.4a9.62,9.62,0,0,0,8.515-17.115l-1.129,3.8-.8-4.763-.024-.009A9.621,9.621,0,0,0,95.09,649.4Z" transform="translate(-70.669 -298.031)" fill="none" stroke="#3f3d56" stroke-miterlimit="10" stroke-width="1"/>
      <path id="Path_164" data-name="Path 164" d="M82.814,677.662a9.616,9.616,0,1,0,1.854-7.534l4.287,6.452L83.1,673.156a9.531,9.531,0,0,0-.284,4.507Z" transform="translate(-68.867 -308.598)" fill="#57b894"/>
      <path id="Path_165" data-name="Path 165" d="M83.377,675.85a9.616,9.616,0,1,0,1.854-7.534l4.287,6.452-5.857-3.424a9.531,9.531,0,0,0-.283,4.507Z" transform="translate(-69.034 -308.061)" fill="none" stroke="#3f3d56" stroke-miterlimit="10" stroke-width="1"/>
      <path id="Path_167" data-name="Path 167" d="M598.368,526.251a3.474,3.474,0,0,1-.929,2.387,3.053,3.053,0,0,1-2.237.991h-7.036A3.282,3.282,0,0,1,585,526.251a3.451,3.451,0,0,1,.577-1.929,33.1,33.1,0,0,1,4.7-.323,33.535,33.535,0,0,1,7.831.9,3.565,3.565,0,0,1,.26,1.351Z" transform="translate(-217.753 -266.397)" fill="#fff"/>
    </g>
    <g id="undraw_making_art_759c" transform="translate(483.005 304.842)">
      <path id="Path_5" data-name="Path 5" d="M285.618,57.46c12.755-11.354,32.781-13.681,51-12.777,57.244,2.843,108.915,30.48,153.635,61.741,16.183,11.314,32.113,23.511,42.615,39.1,21.4,31.72,15.039,75.667-14.69,101.8-10.118,8.891-22.38,15.72-34.969,21.751-22.384,10.747-46.536,19.371-71.938,21.834-18.118,1.747-36.458.328-54.466-2.118-50.344-6.83-99.736-21.921-141.133-47.742-18.161-11.323-35.275-25.4-42.759-43.72s-2.694-41.532,15.847-52.375c7.668-4.485,16.838-6.511,25.812-8.41,13.214-2.8,26.637-5.559,38.563-11.253,12.314-5.878,26.895-17.244,24.454-30.253C274.977,81.075,272.88,68.813,285.618,57.46Z" transform="translate(-169.54 -44.5)" fill="#6c63ff" opacity="0.1"/>
      <path id="Path_6" data-name="Path 6" d="M731.666,185.23s-4.62-1.873-19.318,4.865-16.533,5.886-20.336,4.873-5.926-1.275-10-6.9c0,0-2.878-15.594-5.677-18.013s-14.616,1.38-14.616,1.38-14.187,3.253-16.891-15.72c0,0,1.917-14.288-.694-18.672,0,0,5.275,2.271,13.974-1.4s15.664,3.952,15.664,3.952,2.183,5.677,1.965,9.065,1.162,4.659,5.31,3.022c0,0,2.039-2.9-.847-7.694s-4.948-8.362-4.144-12.083,3.122-8.886,10.568-11.467,17.554-3.057,22.406-5.1S715.072,112,715.072,112s-2.987,2.991,4.048,15.677,2.55,18.187,2.55,18.187-3.742,8.921-20.266,8.2c0,0-15.921.581-7.24,7.332,0,0,5.559-1.131,13.869-3.773s14.31,8.262,15.8,15.847S731.666,185.23,731.666,185.23Z" transform="translate(-436.892 -82.521)" fill="#37897e"/>
      <path id="Path_7" data-name="Path 7" d="M779.4,133.966l.087-.026c.638,2.419-6.476,12.148-12.559,19.882l-.07-.057C775.436,142.874,779.895,135.84,779.4,133.966Z" transform="translate(-506.029 -94.88)" fill="#444053"/>
      <path id="Path_8" data-name="Path 8" d="M744.776,179l.039.1c-4.86,6.175-10.969,13.537-15.86,19.008-.467.52-.93,1.065-1.376,1.624l-.14-.114c.437-.559.913-1.109,1.38-1.629C733.706,192.537,739.911,185.179,744.776,179Z" transform="translate(-483.822 -120.264)" fill="#444053"/>
      <path id="Path_9" data-name="Path 9" d="M713.142,225.89l.1.166c-8.9,11.113-9.489,28.384-9.511,28.519l-1.878-2.183C701.872,252.252,704.182,237.082,713.142,225.89Z" transform="translate(-469.407 -146.678)" fill="#444053"/>
      <path id="Path_10" data-name="Path 10" d="M731.617,218.9s-10.48-5.458-18.672-3.493-26.615-6.943-26.615-6.943-7.817-3.175-9.389-6.795c0,0-5.367-5.677-5.677-8.607s-5.528-10.314-8.934-10.6" transform="translate(-447.144 -122.213)" fill="none" stroke="#444053" stroke-miterlimit="10" stroke-width="1"/>
      <path id="Path_11" data-name="Path 11" d="M811.384,267.982s-5.284-3.563-4.668-7.712" transform="translate(-528.452 -166.045)" fill="none" stroke="#444053" stroke-miterlimit="10" stroke-width="1"/>
      <path id="Path_12" data-name="Path 12" d="M788.207,271.042s-7.559-2.742-8.3-13.5" transform="translate(-513.38 -164.507)" fill="none" stroke="#444053" stroke-miterlimit="10" stroke-width="1"/>
      <path id="Path_13" data-name="Path 13" d="M764.146,273.6a16.912,16.912,0,0,1-4.825-16.463" transform="translate(-501.507 -164.282)" fill="none" stroke="#444053" stroke-miterlimit="10" stroke-width="1"/>
      <path id="Path_14" data-name="Path 14" d="M734.442,266.66s-4.8-10.087-.528-16.65" transform="translate(-486.471 -160.265)" fill="none" stroke="#444053" stroke-miterlimit="10" stroke-width="1"/>
      <path id="Path_15" data-name="Path 15" d="M815.48,250.67s-5.463,1.747-4.293,4.611" transform="translate(-530.907 -160.637)" fill="none" stroke="#444053" stroke-miterlimit="10" stroke-width="1"/>
      <path id="Path_16" data-name="Path 16" d="M796.475,228s-7.314,2.319-7.485,12.664" transform="translate(-518.495 -147.867)" fill="none" stroke="#444053" stroke-miterlimit="10" stroke-width="1"/>
      <path id="Path_17" data-name="Path 17" d="M774.777,222.48s-6.659,8.218-6.17,15.685" transform="translate(-506.998 -144.757)" fill="none" stroke="#444053" stroke-miterlimit="10" stroke-width="1"/>
      <path id="Path_18" data-name="Path 18" d="M748.533,229.86s-6.611,6.323-5.768,9.838" transform="translate(-492.413 -148.914)" fill="none" stroke="#444053" stroke-miterlimit="10" stroke-width="1"/>
      <path id="Path_19" data-name="Path 19" d="M737.82,223.556s-6.2,1.109-7.07-.926" transform="translate(-485.687 -144.842)" fill="none" stroke="#444053" stroke-miterlimit="10" stroke-width="1"/>
      <path id="Path_20" data-name="Path 20" d="M728.49,207.61s3.131,4.148,3.93,3.218" transform="translate(-484.414 -136.38)" fill="none" stroke="#444053" stroke-miterlimit="10" stroke-width="1"/>
      <path id="Path_21" data-name="Path 21" d="M774.88,196.981s-15.633,1.135-19.17-3.581" transform="translate(-499.748 -128.376)" fill="none" stroke="#444053" stroke-miterlimit="10" stroke-width="1"/>
      <path id="Path_22" data-name="Path 22" d="M721,159.73s7.332,15.742,12.664,17.746" transform="translate(-480.195 -109.408)" fill="none" stroke="#444053" stroke-miterlimit="10" stroke-width="1"/>
      <path id="Path_23" data-name="Path 23" d="M738.58,142.56s4.5,14.48,10.083,19" transform="translate(-490.098 -99.736)" fill="none" stroke="#444053" stroke-miterlimit="10" stroke-width="1"/>
      <path id="Path_24" data-name="Path 24" d="M790.131,174.151s-11.886,5.1-19.021-.061" transform="translate(-508.423 -117.498)" fill="none" stroke="#444053" stroke-miterlimit="10" stroke-width="0.75"/>
      <path id="Path_25" data-name="Path 25" d="M762.82,135.49s2.716,10.642,6.375,13.214" transform="translate(-503.753 -95.753)" fill="none" stroke="#444053" stroke-miterlimit="10" stroke-width="0.75"/>
      <path id="Path_26" data-name="Path 26" d="M798.73,146.92s-6.681,2.533-9.17.594" transform="translate(-518.816 -102.192)" fill="none" stroke="#444053" stroke-miterlimit="10" stroke-width="0.75"/>
      <path id="Path_27" data-name="Path 27" d="M712.124,215.57s0,9.279-2.524,9.939" transform="translate(-473.773 -140.864)" fill="none" stroke="#444053" stroke-miterlimit="10" stroke-width="1"/>
      <path id="Path_28" data-name="Path 28" d="M668.09,237.529s10.044.873,14.659-4.319" transform="translate(-450.389 -150.802)" fill="none" stroke="#444053" stroke-miterlimit="10" stroke-width="1"/>
      <path id="Path_29" data-name="Path 29" d="M697.687,190.47s-2.428,9.41-9.127,11.947" transform="translate(-461.92 -126.725)" fill="none" stroke="#444053" stroke-miterlimit="10" stroke-width="1"/>
      <path id="Path_30" data-name="Path 30" d="M654.31,215.477a13.141,13.141,0,0,0,13.209-3.817" transform="translate(-442.626 -138.662)" fill="none" stroke="#444053" stroke-miterlimit="10" stroke-width="1"/>
      <path id="Path_31" data-name="Path 31" d="M684.9,171.94s-.668,7.991-5.013,11.733" transform="translate(-457.036 -116.287)" fill="none" stroke="#444053" stroke-miterlimit="10" stroke-width="1"/>
      <path id="Path_32" data-name="Path 32" d="M654.93,190.082s5.891.039,7.271-1.882" transform="translate(-442.976 -125.446)" fill="none" stroke="#444053" stroke-miterlimit="10" stroke-width="1"/>
      <ellipse id="Ellipse_2" data-name="Ellipse 2" cx="164.189" cy="31.877" rx="164.189" ry="31.877" transform="translate(21.167 290.388)" fill="#6c63ff" opacity="0.1"/>
      <path id="Path_33" data-name="Path 33" d="M436.791,434.692l-.048,1.7-2.952,104.156H428.83l2.428-104.156.048-1.961Z" transform="translate(-241.574 -244.722)" fill="#504f60"/>
      <path id="Path_34" data-name="Path 34" d="M436.791,434.692l-.048,1.7-2.952,104.156H428.83l2.428-104.156.048-1.961Z" transform="translate(-241.574 -244.722)" opacity="0.1"/>
      <path id="Path_35" data-name="Path 35" d="M433.008,630.691l-3.712-.009-55.213-.118-2.943,0,1.568-4.83h59.912Z" transform="translate(-209.076 -352.486)" fill="#504f60"/>
      <path id="Path_36" data-name="Path 36" d="M439.923,434.692l-.048,1.7H434.39l.048-1.961Z" transform="translate(-244.706 -244.722)" opacity="0.1"/>
      <rect id="Rectangle_36" data-name="Rectangle 36" width="9.201" height="3.463" transform="translate(188.103 187.424)" fill="#504f60"/>
      <path id="Path_37" data-name="Path 37" d="M374.572,625.73l-.489,4.834-2.943,0,1.568-4.83Z" transform="translate(-209.076 -352.486)" opacity="0.1"/>
      <path id="Path_38" data-name="Path 38" d="M373.908,429.05l-.148,1.5-12.249,120.8-5.611-.266,12.9-120.535.144-1.371Z" transform="translate(-200.491 -241.691)" fill="#504f60"/>
      <path id="Path_39" data-name="Path 39" d="M507.378,630.691l-3.712-.009-.507-4.952h3.83Z" transform="translate(-283.446 -352.486)" opacity="0.1"/>
      <path id="Path_40" data-name="Path 40" d="M503.033,551.087l-5.616.266-12.244-120.8-.153-1.5,4.961.131.144,1.371Z" transform="translate(-273.227 -241.691)" fill="#504f60"/>
      <rect id="Rectangle_37" data-name="Rectangle 37" width="123.736" height="118.644" transform="translate(129.956 68.256)" fill="#fff"/>
      <rect id="Rectangle_38" data-name="Rectangle 38" width="123.736" height="118.644" transform="translate(129.956 68.256)" fill="#fff"/>
      <path id="Path_41" data-name="Path 41" d="M608.122,106.692v28.646H603.3V106.692a2.415,2.415,0,1,1,4.825,0Z" transform="translate(-413.888 -78.113)" fill="#504f60"/>
      <rect id="Rectangle_39" data-name="Rectangle 39" width="4.83" height="2.607" transform="translate(189.409 54.619)" opacity="0.1"/>
      <path id="Path_42" data-name="Path 42" d="M607.6,172.535V182H599v-9.463a1.175,1.175,0,0,1,1.175-1.175h6.249A1.179,1.179,0,0,1,607.6,172.535Z" transform="translate(-411.469 -115.96)" fill="#504f60"/>
      <circle id="Ellipse_3" data-name="Ellipse 3" cx="1.825" cy="1.825" r="1.825" transform="translate(189.998 59.579)" opacity="0.1"/>
      <circle id="Ellipse_4" data-name="Ellipse 4" cx="1.825" cy="1.825" r="1.825" transform="translate(189.998 59.186)" fill="#3f3d56"/>
      <rect id="Rectangle_40" data-name="Rectangle 40" width="8.616" height="1.175" transform="translate(187.518 64.863)" opacity="0.1"/>
      <rect id="Rectangle_41" data-name="Rectangle 41" width="15.663" height="2.611" transform="translate(183.99 66.431)" opacity="0.1"/>
      <rect id="Rectangle_42" data-name="Rectangle 42" width="15.663" height="2.611" transform="translate(183.99 65.645)" fill="#504f60"/>
      <path id="Path_43" data-name="Path 43" d="M363.068,421h65.785a2.838,2.838,0,0,1,2.838,2.838v.62H360.23v-.62A2.838,2.838,0,0,1,363.068,421Z" transform="translate(-202.93 -237.157)" opacity="0.1"/>
      <path id="Path_44" data-name="Path 44" d="M385.594,429.181l4.961-.131-.148,1.5H385.45Z" transform="translate(-217.137 -241.691)" opacity="0.1"/>
      <rect id="Rectangle_43" data-name="Rectangle 43" width="9.201" height="1.437" transform="translate(188.103 187.424)" opacity="0.1"/>
      <path id="Path_45" data-name="Path 45" d="M490.125,430.552h-4.952l-.153-1.5,4.961.131Z" transform="translate(-273.227 -241.691)" opacity="0.1"/>
      <path id="Path_46" data-name="Path 46" d="M363.068,422.77h65.785a2.838,2.838,0,0,1,2.838,2.838v.62H360.23v-.62a2.838,2.838,0,0,1,2.838-2.838Z" transform="translate(-202.93 -238.154)" fill="#504f60"/>
      <path id="Path_47" data-name="Path 47" d="M512.555,222.014c3.834-4.843,9.847-5.825,15.323-5.441,17.2,1.21,32.72,12.978,46.148,26.288,4.86,4.8,9.646,10.009,12.8,16.646,6.424,13.506,4.515,32.218-4.415,43.344a47.294,47.294,0,0,1-10.506,9.262c-6.72,4.576-13.974,8.244-21.611,9.292a50.481,50.481,0,0,1-16.362-.9,88.741,88.741,0,0,1-42.388-20.327c-5.458-4.8-10.6-10.812-12.847-18.611s-.808-17.685,4.76-22.3c2.306-1.913,5.061-2.773,7.755-3.585,3.969-1.188,8-2.367,11.585-4.8,3.7-2.507,8.078-7.345,7.345-12.886C509.358,232.066,508.729,226.848,512.555,222.014Z" transform="translate(-343.128 -141.387)" fill="#6c63ff" opacity="0.05"/>
      <path id="Path_48" data-name="Path 48" d="M414.988,239.528,379.272,249l-1.279,4.323a16.319,16.319,0,0,1-4.467-1.118c-.69-.288-3.057-1.747-5.03-2.55a6.376,6.376,0,0,1,.795-2.961c1.838-3.258,4.485-6.371,4.393-10.083a26.662,26.662,0,0,0-.629-3.93,38.426,38.426,0,0,1-.358-7.127c0-1.249.031-2.493.044-3.738.2.074.406.148.624.214.319.1.6.2.873.3v.07a2.542,2.542,0,0,0-.087.629c3.31,1.275,3.057,2.515,3.057,2.515l.314.066a8.021,8.021,0,0,0-.38-5.24l-.175-.035a6.2,6.2,0,0,0-3.157-3.127c-.354-.17-.686-.345-1-.52q.048-4.048.087-8.092a9.065,9.065,0,0,0-.24-2.725,11.961,11.961,0,0,0-1.406-2.646c-.524-.873-1-1.747-1.55-2.62a11.633,11.633,0,0,1,1.594-1.38c.323-.236.655-.463.987-.69l.5-.345c.5-.345,1-.694,1.467-1.07a9.537,9.537,0,0,0,1.284-1.231,6.844,6.844,0,0,0,.546-.751l.087-.131a7.3,7.3,0,0,0,.437-.773c.026-.048.044-.1.065-.144a8.689,8.689,0,0,0,.328-.847h0a9.167,9.167,0,0,0,.24-.9.824.824,0,0,1,.022-.1c.061-.306.109-.616.148-.926v-.1a15.538,15.538,0,0,0,0-3.057h0c-.048-.515-.109-1.031-.192-1.533-.52-3.2-1.55-6.375-1.31-9.607a3.287,3.287,0,0,1,.048-.41h0a32.139,32.139,0,0,1,1.555-6.157c.052-.175.109-.345.162-.52.026-.079.048-.157.074-.236.079-.258.153-.515.227-.773v-.035a13.767,13.767,0,0,0,.638-5.86h0a8.5,8.5,0,0,0-.279-1.245c-.852-2.668-3.057-4.686-5.24-6.5-3.865-3.223-7.978-6.275-12.694-8.113a22.2,22.2,0,0,0-13-1.079c-4.41.974-8.734.721-13.057,2.559-1.45.62-2.956,1.48-3.528,2.926a9.9,9.9,0,0,0-.376,2.878,9.978,9.978,0,0,1-2.834,6.148c-1.175,1.183-2.62,2.065-3.782,3.275a8.236,8.236,0,0,0-2.065,3.93h0a7.219,7.219,0,0,0-.127,2.205v.022a2.646,2.646,0,0,0,.074.489v.061c.031.157.07.31.109.463a.5.5,0,0,1,0,.079c.044.148.1.3.153.437l.026.087a5.371,5.371,0,0,0,.231.511c.437.843,1.035,1.585,1.489,2.41.109.2.21.4.3.607a10.639,10.639,0,0,1,.729,2.6c.07.437.122.9.166,1.349.022.227.039.437.057.677a47.768,47.768,0,0,1-.258,9.445c-.1.773-.21,1.555-.288,2.332h0a3.715,3.715,0,0,1-.035.38,4.9,4.9,0,0,0-2.782,2.555,9.258,9.258,0,0,0-.4,3.162,8.273,8.273,0,0,1-1.271,4.537,3.617,3.617,0,0,0-1.856,2.961,17.749,17.749,0,0,0-.231,3c0,1.262.035,2.55.135,3.83h0c-.083.153-.162.314-.236.48a.086.086,0,0,1-.035.083c-.061.144-.118.288-.175.437,0,.026-.022.052-.031.083-.065.17-.122.345-.179.52h0c-.052.166-.1.336-.144.507l-.026.109c-.039.153-.074.3-.109.437v.061c-.035.166-.065.327-.1.485a.742.742,0,0,1,0,.1,2.358,2.358,0,0,1-.057.358v.114c-.022.14-.035.275-.048.4a2.165,2.165,0,0,1-.026.31,6.848,6.848,0,0,1-.362,2.148,7.423,7.423,0,0,1-.48.9c-.057.1-.114.2-.162.3a5.136,5.136,0,0,0-.437,1.362,6.5,6.5,0,0,0-.1.712c-.044.48-.052.974-.048,1.463v2.214a14.936,14.936,0,0,1-.21,1.642q-.074.406-.157.812c-.057.271-.118.541-.179.812q-.367,1.677-.738,3.358c-.249,1.118-.5,2.236-.755,3.349-.515,2.236-1.048,4.463-1.624,6.681a17.042,17.042,0,0,0-.38,1.712,5.761,5.761,0,0,0-.039,1.707,3.407,3.407,0,0,0,.332,1.074c.087.175.2.345.3.515a3.99,3.99,0,0,1,.275.524,7.985,7.985,0,0,1,.231,2.424,3.2,3.2,0,0,0,.153.79,2.55,2.55,0,0,0,2.183,1.629,2.109,2.109,0,0,0,.371,0l.341.808a5.381,5.381,0,0,0,1.428,2.236,3.8,3.8,0,0,0,3.127.559,11.03,11.03,0,0,0,2.991-1.31c2.258-1.258,4.52-2.52,6.747-3.834a4.868,4.868,0,0,1,1.022,1.524,1.4,1.4,0,0,1,.074.507,2.725,2.725,0,0,1-.31.978c-.546,1.162-1.083,2.323-1.62,3.493-3.76,8.087-2.882,17.506-2.092,26.358.341,3.742.917,7.454,1.231,11.2.786,9.284,0,18.659,1.065,27.912.581,4.987,1.712,9.9,2.48,14.847a104.606,104.606,0,0,1,1.205,13.668c.437-.131.852-.245,1.279-.349l.467-.114c.323-.074.646-.135.969-.2s.59-.1.873-.144h0a29.781,29.781,0,0,1,5.987-.245l.8.065c.074.62.148,1.223.205,1.782a4.213,4.213,0,0,0,.044.437,79.769,79.769,0,0,0,1.048,7.956,6.454,6.454,0,0,1,.157,2.183,6.311,6.311,0,0,1-1.921,3.057c-2.367,2.428-4.886,4.76-6.681,7.62-2.144,3.415-3.135,7.384-4.092,11.279a171.689,171.689,0,0,0-3.672,17.467,3.113,3.113,0,0,0,0,1.083.705.705,0,0,0-.044.079c-.987,1.651-2.367,3.1-2.978,4.948a12.7,12.7,0,0,0-.437,3.747q-.057,3.275-.122,6.55c-.092,4.747-.166,9.581,1.258,14.118a11.419,11.419,0,0,0,2.288,4.319,6.026,6.026,0,0,0,4.367,2.074,7.705,7.705,0,0,0,2.039-.349l.332-.1a5.86,5.86,0,0,0,.148,2.93,2.057,2.057,0,0,0,.52.908,2.315,2.315,0,0,0,.76.437c4.275,1.659,9.17.214,13.681,1.009,5.262.921,9.7,4.8,15.026,5.24a4.584,4.584,0,0,0,3.253-.7,3.349,3.349,0,0,0,1.052-3.21,3.7,3.7,0,0,0-.214-.7,4.55,4.55,0,0,0-3.6-2.707,16.952,16.952,0,0,1-11.912-7.69,21.181,21.181,0,0,1-2.755-11.869,63.828,63.828,0,0,1,1.969-12.17q2.769-12.078,5.546-24.152a87.25,87.25,0,0,0,1.747-9.205c.183-1.581.279-3.175.327-4.773.135-.236.266-.472.4-.712a31.8,31.8,0,0,0,3.668-9.092,35.6,35.6,0,0,0,.437-5.188c0-.157,0-.3,0-.437.022-.594.044-1.192.07-1.786a2.468,2.468,0,0,0,.437-.026c5.048-.52,9.327-4.83,14.384-4.393.437.362.764-.332,1.022-.821,2.585-4.869,1.41-10.733.4-16.131a205.774,205.774,0,0,1-3.472-44.253c.192-6.4.607-13.1-.611-19.3l33-10.917Zm-16.952,8.3c0,.511-.659.943-1.581,1.109a6.45,6.45,0,0,1,.07-1.166,1.52,1.52,0,0,0-.437-1.1c1.109.1,1.956.576,1.956,1.153Zm-3.572-1.035a1.55,1.55,0,0,0-.332.969,1.472,1.472,0,0,1,0,.712,1.463,1.463,0,0,0,.026.275c-.563-.218-.934-.55-.934-.93S393.7,247,394.464,246.79ZM325.252,235.97l.057.214H324.9Zm12.367,196.15a49.62,49.62,0,0,1-.686-10.72q.035-4.432.074-8.869a21.186,21.186,0,0,1,.236-3.607c.114-.633.284-1.262.41-1.891a22.931,22.931,0,0,1,1.773-3.493s0,.031,0,.044c-.275,5.2-1.24,10.6-.306,15.7a22.34,22.34,0,0,1-1.5,12.838ZM373.98,261.336c-.114-.192-.231-.376-.349-.563.664.2,1.31.389,2,.576l-.594,2.013C374.709,262.677,374.377,262,373.98,261.336Z" transform="translate(-249.291 -101.435)" fill="url(#linear-gradient)"/>
      <path id="Path_49" data-name="Path 49" d="M348.687,151.2a5.953,5.953,0,0,0-3.441,2.917,9.925,9.925,0,0,0-.362,2.86,10.017,10.017,0,0,1-2.764,6.113c-1.144,1.179-2.568,2.061-3.681,3.262a7.6,7.6,0,0,0-1.533,8.262c.41.838,1.009,1.576,1.45,2.4a12.712,12.712,0,0,1,1.214,5.21,48.723,48.723,0,0,1-.245,9.406,16.9,16.9,0,0,0-.148,6,13.1,13.1,0,0,0,1.86,3.9,29.261,29.261,0,0,0,7.93,8.838,24.107,24.107,0,0,0,11.624,3.725,62.148,62.148,0,0,0,12.31-.572c3.057-.367,6.629-1.131,7.934-3.93.725-1.568.537-3.432,1.218-5.017,1.227-2.86,4.764-3.93,6.742-6.306,2.061-2.485,2.148-6.057,1.642-9.244s-1.511-6.354-1.275-9.576c.376-5.175,3.93-10.223,2.367-15.179-.825-2.659-2.978-4.664-5.1-6.472-3.764-3.21-7.768-6.253-12.367-8.078a21.166,21.166,0,0,0-12.664-1.079C357.111,149.625,352.884,149.384,348.687,151.2Z" transform="translate(-263.464 -102.875)" fill="#2f2e41"/>
      <g id="Group_39" data-name="Group 39" transform="translate(72.78 62.636)" opacity="0.08">
        <path id="Path_50" data-name="Path 50" d="M339.615,212.809a47.8,47.8,0,0,0-.092-4.939,12.744,12.744,0,0,0-1.214-5.21c-.437-.825-1.039-1.559-1.45-2.4a6.054,6.054,0,0,1-.48-1.393,6.716,6.716,0,0,0,.48,4.341c.41.838,1.009,1.576,1.45,2.4a12.711,12.711,0,0,1,1.214,5.21C339.589,211.481,339.615,212.145,339.615,212.809Z" transform="translate(-336.216 -194.093)"/>
        <path id="Path_51" data-name="Path 51" d="M457.358,198.93a15.376,15.376,0,0,0,.044,2.537c.48-4.6,3.266-9.1,2.6-13.537C459.523,191.546,457.62,195.2,457.358,198.93Z" transform="translate(-404.44 -187.93)"/>
        <path id="Path_52" data-name="Path 52" d="M392.253,250.063c-1.978,2.4-5.515,3.445-6.742,6.3-.681,1.59-.493,3.454-1.218,5.022-1.31,2.8-4.865,3.563-7.934,3.93a61.8,61.8,0,0,1-12.31.572,24.138,24.138,0,0,1-11.624-3.725,29.225,29.225,0,0,1-7.93-8.843,13.1,13.1,0,0,1-1.86-3.9,6.826,6.826,0,0,1-.135-.725,11.016,11.016,0,0,0,.135,3.672,13.1,13.1,0,0,0,1.86,3.9,29.26,29.26,0,0,0,7.93,8.838,24.106,24.106,0,0,0,11.624,3.725,62.148,62.148,0,0,0,12.31-.572c3.057-.367,6.629-1.131,7.934-3.93.725-1.568.537-3.432,1.218-5.017,1.227-2.86,4.764-3.93,6.742-6.306,1.747-2.1,2.07-4.965,1.83-7.72a8.694,8.694,0,0,1-1.83,4.773Z" transform="translate(-339.702 -220.242)"/>
      </g>
      <path id="Path_53" data-name="Path 53" d="M398.325,255.051a9.045,9.045,0,0,1-6.288,2.777,15.663,15.663,0,0,1-6.847-1.424,25.3,25.3,0,0,1-14.882-19.676,4.144,4.144,0,0,1,.083-1.952c.633-1.782,2.987-2.07,4.568-3.127a6.956,6.956,0,0,0,2.651-4.319c.1-.459.192-.917.262-1.384.183-1.245.279-2.507.5-3.747a3.977,3.977,0,0,1,.6-1.681,3.716,3.716,0,0,1,1.585-1.144c3.69-1.6,8.5-.873,12.166.515,1.227.467.991.607.524,1.812a24.182,24.182,0,0,0-.782,2.345c-.066.223-.127.437-.183.672a26.2,26.2,0,0,0-.8,6.275,10.17,10.17,0,0,0,1.284,5.6c1.69,2.581,5.127,3.668,6.664,6.345a8.987,8.987,0,0,1,1,3.432C400.8,249.414,400.373,252.759,398.325,255.051Z" transform="translate(-282.596 -142.495)" fill="#fbbebe"/>
      <path id="Path_54" data-name="Path 54" d="M343.287,738.814a12.869,12.869,0,0,0-.437,3.729l-.122,6.55c-.087,4.725-.162,9.541,1.231,14.057a11.388,11.388,0,0,0,2.227,4.306,5.808,5.808,0,0,0,4.262,2.065,7.369,7.369,0,0,0,1.987-.354,5.031,5.031,0,0,0,3.026-1.913c.843-1.389.376-3.153.039-4.742a50.14,50.14,0,0,1-.69-10.8l.074-8.834a21.4,21.4,0,0,1,.227-3.589c.17-.948.467-1.878.541-2.834a3.056,3.056,0,0,0-.493-2.118,2.938,2.938,0,0,0-1.62-.948,34.71,34.71,0,0,0-3.45-.389,4.934,4.934,0,0,1-1.485-.437c-.279-.135-.873-.76-1.162-.755-.568,0-.939,1.559-1.253,2.1C345.225,735.526,343.881,736.971,343.287,738.814Z" transform="translate(-267.081 -431.676)" fill="#fbbebe"/>
      <path id="Path_55" data-name="Path 55" d="M392.291,603.364c-3.109,9.284-1,19.528-2.122,29.292a87.345,87.345,0,0,1-1.716,9.17l-5.4,24.052A64.647,64.647,0,0,0,381.13,678a21.667,21.667,0,0,0,2.69,11.821,16.489,16.489,0,0,0,11.6,7.659,4.45,4.45,0,0,1,3.493,2.7,3.84,3.84,0,0,1,.205.7,3.371,3.371,0,0,1-1.026,3.2,4.419,4.419,0,0,1-3.166.7c-5.188-.437-9.515-4.314-14.642-5.24-4.41-.79-9.17.651-13.327-1a2.257,2.257,0,0,1-.738-.437,2.044,2.044,0,0,1-.507-.9c-.978-3.057,1.031-6.148,2.358-9.065a22.672,22.672,0,0,0,1.677-13.31c-.908-5.083.031-10.454.3-15.633a94.592,94.592,0,0,1,1.956-14.271,47.711,47.711,0,0,1,2.485-9.3c.764-1.747,1.773-3.41,2.576-5.153a47.6,47.6,0,0,0,2.978-10.183c1.476-6.987,2.908-14.03,2.908-21.166a21.881,21.881,0,0,1,8.03,1.507A2.249,2.249,0,0,1,392.291,603.364Z" transform="translate(-279.907 -356.928)" fill="#fbbebe"/>
      <path id="Path_56" data-name="Path 56" d="M392.291,603.364c-3.109,9.284-1,19.528-2.122,29.292a87.345,87.345,0,0,1-1.716,9.17l-5.4,24.052A64.647,64.647,0,0,0,381.13,678a21.667,21.667,0,0,0,2.69,11.821,16.489,16.489,0,0,0,11.6,7.659,4.45,4.45,0,0,1,3.493,2.7,3.84,3.84,0,0,1,.205.7,3.371,3.371,0,0,1-1.026,3.2,4.419,4.419,0,0,1-3.166.7c-5.188-.437-9.515-4.314-14.642-5.24-4.41-.79-9.17.651-13.327-1a2.257,2.257,0,0,1-.738-.437,2.044,2.044,0,0,1-.507-.9c-.978-3.057,1.031-6.148,2.358-9.065a22.672,22.672,0,0,0,1.677-13.31c-.908-5.083.031-10.454.3-15.633a94.592,94.592,0,0,1,1.956-14.271,47.711,47.711,0,0,1,2.485-9.3c.764-1.747,1.773-3.41,2.576-5.153a47.6,47.6,0,0,0,2.978-10.183c1.476-6.987,2.908-14.03,2.908-21.166a21.881,21.881,0,0,1,8.03,1.507A2.249,2.249,0,0,1,392.291,603.364Z" transform="translate(-279.907 -356.928)" opacity="0.08"/>
      <path id="Path_57" data-name="Path 57" d="M387.084,596.922q-.262,6.768-.5,13.537v.437a35.863,35.863,0,0,1-.437,5.166,31.884,31.884,0,0,1-3.572,9.061,20.317,20.317,0,0,1-1.568,2.62c-.515.7-1.113,1.336-1.594,2.052-1.245,1.86-1.629,4.14-2.358,6.253-3.332,9.642-13.729,15.458-17.214,25.039a55.216,55.216,0,0,1-7.72-2.79,1.812,1.812,0,0,1-1.349-2.371,174.875,174.875,0,0,1,3.572-17.4c.93-3.882,1.9-7.83,3.987-11.236,1.747-2.847,4.205-5.17,6.511-7.589a6.116,6.116,0,0,0,1.869-3.017,6.385,6.385,0,0,0-.153-2.183q-.707-3.93-1.022-7.926a1.6,1.6,0,0,0-.039-.437c-.2-2-.672-4.611-.236-6.485.79-3.406,7.423-4.1,10.327-4.175A50.251,50.251,0,0,1,387.084,596.922Z" transform="translate(-271.578 -354.87)" fill="#fbbebe"/>
      <path id="Path_58" data-name="Path 58" d="M442.11,387.419c4.406,1.873,9.454,1.336,14.131.284s9.306-2.581,14.1-2.62c1.341,0,3.026.4,3.258,1.721a3.081,3.081,0,0,1-.59,1.978,7.836,7.836,0,0,1-2.437,2.991,11.209,11.209,0,0,1-2.847.978c-1.812.515-3.493,1.415-5.24,2.1a47.04,47.04,0,0,1-9.271,2.3,17.69,17.69,0,0,1-4.463.406,16.211,16.211,0,0,1-2.952-.59q-4.258-1.153-8.419-2.62a2.068,2.068,0,0,1-1.38-1,2.31,2.31,0,0,1-.065-1.039,12.7,12.7,0,0,0-.367-4.179c-.179-.681-1.581-3.114-1.109-3.607C435.543,383.38,441.01,386.952,442.11,387.419Z" transform="translate(-318.722 -235.915)" fill="#fbbebe"/>
      <path id="Path_59" data-name="Path 59" d="M442.11,387.419c4.406,1.873,9.454,1.336,14.131.284s9.306-2.581,14.1-2.62c1.341,0,3.026.4,3.258,1.721a3.081,3.081,0,0,1-.59,1.978,7.836,7.836,0,0,1-2.437,2.991,11.209,11.209,0,0,1-2.847.978c-1.812.515-3.493,1.415-5.24,2.1a47.04,47.04,0,0,1-9.271,2.3,17.69,17.69,0,0,1-4.463.406,16.211,16.211,0,0,1-2.952-.59q-4.258-1.153-8.419-2.62a2.068,2.068,0,0,1-1.38-1,2.31,2.31,0,0,1-.065-1.039,12.7,12.7,0,0,0-.367-4.179c-.179-.681-1.581-3.114-1.109-3.607C435.543,383.38,441.01,386.952,442.11,387.419Z" transform="translate(-318.722 -235.915)" opacity="0.08"/>
      <path id="Path_60" data-name="Path 60" d="M403.105,221.7a24.191,24.191,0,0,0-.782,2.345,14.463,14.463,0,0,1-14.594,1.9c.183-1.245.279-2.507.5-3.747a3.978,3.978,0,0,1,.6-1.681,3.716,3.716,0,0,1,1.585-1.144c3.69-1.6,8.5-.873,12.166.515C403.808,220.357,403.568,220.5,403.105,221.7Z" transform="translate(-292.455 -142.495)" opacity="0.1"/>
      <circle id="Ellipse_5" data-name="Ellipse 5" cx="14.45" cy="14.45" r="14.45" transform="translate(86.524 55.129)" fill="#fbbebe"/>
      <path id="Path_61" data-name="Path 61" d="M405.641,596.913q-.262,6.768-.5,13.537a20.355,20.355,0,0,1-6.851-1.21,72.706,72.706,0,0,0-14.262-3.122c-.2-2-.672-4.611-.236-6.485.79-3.406,7.423-4.1,10.327-4.175A50.8,50.8,0,0,1,405.641,596.913Z" transform="translate(-290.134 -354.861)" opacity="0.08"/>
      <path id="Path_62" data-name="Path 62" d="M389.286,400c-.253.489-.585,1.179-1,.821-4.926-.437-9.1,3.856-14.013,4.367a19.2,19.2,0,0,1-7.34-1.175c-8.017-2.376-16.62-4.677-24.58-2.153a106.8,106.8,0,0,0-1.175-13.611c-.751-4.939-1.851-9.83-2.419-14.795-1.057-9.218-.271-18.554-1.039-27.8-.306-3.729-.873-7.423-1.2-11.153-.773-8.816-1.629-18.2,2.035-26.257q.786-1.747,1.581-3.472a2.717,2.717,0,0,0,.3-.974,1.48,1.48,0,0,0-.07-.507c-.214-.734-.921-1.31-1.345-2a6.326,6.326,0,0,1-.537-3.9c.048-.563.2-1.026.236-1.59a21.123,21.123,0,0,1-3.1-7.1c-.773-2.882-1.262-5.9-2.118-8.76-1.375-4.585-3.729-8.851-4.882-13.5a32.727,32.727,0,0,1-.668-7.423,18.624,18.624,0,0,1,.223-3,3.618,3.618,0,0,1,1.812-2.948,8.419,8.419,0,0,0,1.236-4.52,9.741,9.741,0,0,1,.384-3.148c.782-1.974,3.057-2.908,5.144-3.218s4.31-.236,6.24-1.122a13.243,13.243,0,0,0,2.07-1.262,73.638,73.638,0,0,0,7.14-5.406.437.437,0,0,1,.2-.114.442.442,0,0,1,.266.131c1.817,1.616,3.624,3.231,5.441,4.843.991.873,1.982,1.747,2.9,2.72a23.622,23.622,0,0,1,3.367,4.52,21.232,21.232,0,0,1,1.188,2.3,24.249,24.249,0,0,1,1.332,3.777,18.961,18.961,0,0,1,.437,2.07c.083.5.153,1.009.2,1.524q.035.253.052.511a2.182,2.182,0,0,0,.843-.371,1.712,1.712,0,0,0,.6-.76,3.852,3.852,0,0,0,.231-.873,9.049,9.049,0,0,0,.087-1.144c0-.437.031-.913.031-1.367a12.323,12.323,0,0,0-.223-2.371c-.293-1.432-.926-2.773-1.31-4.183a5.73,5.73,0,0,1,.21-4.275c.271-.485.773-.956,1.31-.843a1.41,1.41,0,0,1,.873.873,4.462,4.462,0,0,1,.367,1.83c0,.306,0,.555.279.707a4.615,4.615,0,0,0,2.367,3.393,27.614,27.614,0,0,1,3.629,2.293c1.362,1.205,2.113,2.926,3.057,4.48a12.108,12.108,0,0,1,1.367,2.62,9.268,9.268,0,0,1,.236,2.712q-.083,8.458-.183,16.908a38.907,38.907,0,0,0,.349,7.1,26.553,26.553,0,0,1,.611,3.93c.092,3.694-2.489,6.8-4.279,10.043-1.31,2.345-.825,5.31.323,7.742s2.9,4.511,4.236,6.834c4.747,8.227,3.969,18.34,3.69,27.855a209.757,209.757,0,0,0,3.393,44.117C390.661,389.315,391.806,395.158,389.286,400Z" transform="translate(-258.784 -151.416)" fill="#3f3d56"/>
      <path id="Path_63" data-name="Path 63" d="M377.219,268.781a13,13,0,0,0-1.428.1v1.31a13.461,13.461,0,0,1,1.616.114c.3.035.6.074.9.14a6.55,6.55,0,0,1,2.62,1.07c1.467,1.044,2.332,3.113,1.5,4.7l-.546.227a2.9,2.9,0,0,1,.065,1.843c-.258.572-1.109.9-1.528.437-.472-.537-.048-1.616-.681-1.948a.873.873,0,0,0-1.1.437,2.262,2.262,0,0,0-.118,1.31c.437,3.454,2.087,6.716,2.148,10.2.022,1.122.044,2.45-.742,3.244q-2.258,2.306-4.533,4.616c-2.821,2.873-5.646,5.751-8.624,8.458a107.08,107.08,0,0,1-14.847,11.323c-.555.354-1.114.694-1.672,1.039-.214-.734-.921-1.31-1.345-2a6.326,6.326,0,0,1-.537-3.9c.048-.563.2-1.026.236-1.59a21.123,21.123,0,0,1-3.1-7.1h.59a18.024,18.024,0,0,0,6.083-1.541,44.008,44.008,0,0,0,5.157-2.205,37.766,37.766,0,0,0,6.987-5.048,8.38,8.38,0,0,1,4.712-2.375c1.057-1.087,2.69-1.7,3.236-3.113a4.86,4.86,0,0,0,.074-2.441,46.905,46.905,0,0,0-1.227-5.677,39.944,39.944,0,0,1-.594-4.4A21.145,21.145,0,0,1,370,271c.192-3.157,1.786-6.026,3.341-8.777.31-.528.611-1.065.908-1.6.249-.437.5-.873.751-1.31a1.341,1.341,0,0,1,1.079,1.271,3.93,3.93,0,0,1-.4,1.747c-.083.2-.157.4-.24.6-.707,1.777-1.424,3.555-2.131,5.336a22.548,22.548,0,0,1,3.463-1.559,9.629,9.629,0,0,1,1.541-.354,6.2,6.2,0,0,1,.948-.057,4.933,4.933,0,0,1,3.93,1.7c.349.437.585,1.113.214,1.533a20.331,20.331,0,0,0-4.258-.721A13.5,13.5,0,0,0,377.219,268.781Z" transform="translate(-268.66 -165.504)" opacity="0.08"/>
      <path id="Path_64" data-name="Path 64" d="M456.559,371.957l-6.489,22.41,36.567-12.384,4.716-19.463Zm15.921,0c-1.31,0-2.358-.528-2.358-1.179s1.057-1.179,2.358-1.179,2.362.528,2.362,1.179-1.057,1.179-2.362,1.179Z" transform="translate(-327.573 -223.645)" fill="#464353"/>
      <ellipse id="Ellipse_6" data-name="Ellipse 6" cx="15.629" cy="7.668" rx="15.629" ry="7.668" transform="translate(86.821 53.064)" fill="#2f2e41"/>
      <ellipse id="Ellipse_7" data-name="Ellipse 7" cx="2.065" cy="0.59" rx="2.065" ry="0.59" transform="translate(132.226 152.145)" fill="#6c63ff" opacity="0.9"/>
      <ellipse id="Ellipse_8" data-name="Ellipse 8" cx="2.065" cy="0.59" rx="2.065" ry="0.59" transform="translate(129.868 155.093)" fill="#fbbebe" opacity="0.9"/>
      <ellipse id="Ellipse_9" data-name="Ellipse 9" cx="2.065" cy="0.59" rx="2.065" ry="0.59" transform="translate(145.204 150.962)" fill="#fbbebe" opacity="0.9"/>
      <ellipse id="Ellipse_10" data-name="Ellipse 10" cx="2.065" cy="0.59" rx="2.065" ry="0.59" transform="translate(131.637 155.093)" fill="#fbbebe" opacity="0.9"/>
      <ellipse id="Ellipse_11" data-name="Ellipse 11" cx="2.065" cy="0.59" rx="2.065" ry="0.59" transform="translate(128.1 154.503)" fill="#fbbebe" opacity="0.9"/>
      <ellipse id="Ellipse_12" data-name="Ellipse 12" cx="2.065" cy="0.59" rx="2.065" ry="0.59" transform="translate(128.1 156.272)" fill="#fbbebe" opacity="0.9"/>
      <ellipse id="Ellipse_13" data-name="Ellipse 13" cx="2.065" cy="0.59" rx="2.065" ry="0.59" transform="translate(132.816 153.914)" fill="#fbbebe" opacity="0.9"/>
      <ellipse id="Ellipse_14" data-name="Ellipse 14" cx="2.065" cy="0.59" rx="2.065" ry="0.59" transform="translate(129.279 152.735)" fill="#fbbebe" opacity="0.9"/>
      <ellipse id="Ellipse_15" data-name="Ellipse 15" cx="2.065" cy="0.59" rx="2.065" ry="0.59" transform="translate(133.41 154.503)" fill="#6c63ff" opacity="0.9"/>
      <ellipse id="Ellipse_16" data-name="Ellipse 16" cx="2.065" cy="0.59" rx="2.065" ry="0.59" transform="translate(134.589 151.551)" fill="#6c63ff" opacity="0.9"/>
      <ellipse id="Ellipse_17" data-name="Ellipse 17" cx="2.065" cy="0.59" rx="2.065" ry="0.59" transform="translate(134.589 152.735)" fill="#6c63ff" opacity="0.9"/>
      <ellipse id="Ellipse_18" data-name="Ellipse 18" cx="2.065" cy="0.59" rx="2.065" ry="0.59" transform="translate(135.178 154.503)" fill="#6c63ff" opacity="0.9"/>
      <ellipse id="Ellipse_19" data-name="Ellipse 19" cx="2.065" cy="0.59" rx="2.065" ry="0.59" transform="translate(141.073 152.145)" fill="#6c63ff" opacity="0.9"/>
      <ellipse id="Ellipse_20" data-name="Ellipse 20" cx="2.065" cy="0.59" rx="2.065" ry="0.59" transform="translate(143.432 151.551)" fill="#6c63ff" opacity="0.9"/>
      <ellipse id="Ellipse_21" data-name="Ellipse 21" cx="2.065" cy="0.59" rx="2.065" ry="0.59" transform="translate(143.432 152.735)" fill="#6c63ff" opacity="0.9"/>
      <ellipse id="Ellipse_22" data-name="Ellipse 22" cx="2.065" cy="0.59" rx="2.065" ry="0.59" transform="translate(140.484 154.503)" fill="#6c63ff" opacity="0.9"/>
      <ellipse id="Ellipse_23" data-name="Ellipse 23" cx="2.065" cy="0.59" rx="2.065" ry="0.59" transform="translate(141.073 154.503)" fill="#6c63ff" opacity="0.9"/>
      <ellipse id="Ellipse_24" data-name="Ellipse 24" cx="2.065" cy="0.59" rx="2.065" ry="0.59" transform="translate(140.484 154.503)" fill="#6c63ff" opacity="0.9"/>
      <ellipse id="Ellipse_25" data-name="Ellipse 25" cx="2.065" cy="0.59" rx="2.065" ry="0.59" transform="translate(138.715 154.503)" fill="#6c63ff" opacity="0.9"/>
      <ellipse id="Ellipse_26" data-name="Ellipse 26" cx="2.065" cy="0.59" rx="2.065" ry="0.59" transform="translate(136.357 152.145)" fill="#6c63ff" opacity="0.9"/>
      <ellipse id="Ellipse_27" data-name="Ellipse 27" cx="2.065" cy="0.59" rx="2.065" ry="0.59" transform="translate(136.947 153.324)" fill="#6c63ff" opacity="0.9"/>
      <ellipse id="Ellipse_28" data-name="Ellipse 28" cx="2.065" cy="0.59" rx="2.065" ry="0.59" transform="translate(138.715 151.551)" fill="#3f3d56" opacity="0.9"/>
      <ellipse id="Ellipse_29" data-name="Ellipse 29" cx="2.065" cy="0.59" rx="2.065" ry="0.59" transform="translate(138.715 152.735)" fill="#6c63ff" opacity="0.9"/>
      <ellipse id="Ellipse_30" data-name="Ellipse 30" cx="2.065" cy="0.59" rx="2.065" ry="0.59" transform="translate(138.126 153.324)" fill="#f86d70"/>
      <ellipse id="Ellipse_31" data-name="Ellipse 31" cx="2.065" cy="0.59" rx="2.065" ry="0.59" transform="translate(140.484 153.324)" fill="#6c63ff" opacity="0.9"/>
      <ellipse id="Ellipse_32" data-name="Ellipse 32" cx="2.065" cy="0.59" rx="2.065" ry="0.59" transform="translate(141.663 155.682)" fill="#6c63ff" opacity="0.9"/>
      <ellipse id="Ellipse_33" data-name="Ellipse 33" cx="2.065" cy="0.59" rx="2.065" ry="0.59" transform="translate(142.842 152.735)" fill="#6c63ff" opacity="0.9"/>
      <ellipse id="Ellipse_34" data-name="Ellipse 34" cx="2.065" cy="0.59" rx="2.065" ry="0.59" transform="translate(142.842 153.914)" fill="#6c63ff" opacity="0.9"/>
      <ellipse id="Ellipse_35" data-name="Ellipse 35" cx="2.065" cy="0.59" rx="2.065" ry="0.59" transform="translate(143.432 155.682)" fill="#6c63ff" opacity="0.9"/>
      <ellipse id="Ellipse_36" data-name="Ellipse 36" cx="2.065" cy="0.59" rx="2.065" ry="0.59" transform="translate(149.331 153.324)" fill="#6c63ff" opacity="0.9"/>
      <ellipse id="Ellipse_37" data-name="Ellipse 37" cx="2.065" cy="0.59" rx="2.065" ry="0.59" transform="translate(151.689 152.735)" fill="#6c63ff" opacity="0.9"/>
      <ellipse id="Ellipse_38" data-name="Ellipse 38" cx="2.065" cy="0.59" rx="2.065" ry="0.59" transform="translate(151.689 153.914)" fill="#a1616a" opacity="0.9"/>
      <ellipse id="Ellipse_39" data-name="Ellipse 39" cx="2.065" cy="0.59" rx="2.065" ry="0.59" transform="translate(148.741 155.682)" fill="#6c63ff" opacity="0.9"/>
      <ellipse id="Ellipse_40" data-name="Ellipse 40" cx="2.065" cy="0.59" rx="2.065" ry="0.59" transform="translate(149.331 155.682)" fill="#6c63ff" opacity="0.9"/>
      <ellipse id="Ellipse_41" data-name="Ellipse 41" cx="2.065" cy="0.59" rx="2.065" ry="0.59" transform="translate(148.741 155.682)" fill="#6c63ff" opacity="0.9"/>
      <ellipse id="Ellipse_42" data-name="Ellipse 42" cx="2.065" cy="0.59" rx="2.065" ry="0.59" transform="translate(146.973 155.682)" fill="#f86d70"/>
      <ellipse id="Ellipse_43" data-name="Ellipse 43" cx="2.065" cy="0.59" rx="2.065" ry="0.59" transform="translate(144.615 153.324)" fill="#6c63ff" opacity="0.9"/>
      <ellipse id="Ellipse_44" data-name="Ellipse 44" cx="2.065" cy="0.59" rx="2.065" ry="0.59" transform="translate(145.204 154.503)" fill="#6c63ff" opacity="0.9"/>
      <ellipse id="Ellipse_45" data-name="Ellipse 45" cx="2.065" cy="0.59" rx="2.065" ry="0.59" transform="translate(146.973 152.735)" fill="#a1616a" opacity="0.9"/>
      <ellipse id="Ellipse_46" data-name="Ellipse 46" cx="2.065" cy="0.59" rx="2.065" ry="0.59" transform="translate(146.973 153.914)" fill="#f86d70"/>
      <ellipse id="Ellipse_47" data-name="Ellipse 47" cx="2.065" cy="0.59" rx="2.065" ry="0.59" transform="translate(146.383 154.503)" fill="#f86d70"/>
      <ellipse id="Ellipse_48" data-name="Ellipse 48" cx="2.065" cy="0.59" rx="2.065" ry="0.59" transform="translate(126.149 159.08) rotate(-10.63)" fill="#6c63ff" opacity="0.9"/>
      <ellipse id="Ellipse_49" data-name="Ellipse 49" cx="2.065" cy="0.59" rx="2.065" ry="0.59" transform="translate(127.74 161.182) rotate(-10.63)" fill="#6c63ff" opacity="0.9"/>
      <ellipse id="Ellipse_50" data-name="Ellipse 50" cx="2.065" cy="0.59" rx="2.065" ry="0.59" transform="translate(128.356 158.07) rotate(-10.63)" fill="#6c63ff" opacity="0.9"/>
      <ellipse id="Ellipse_51" data-name="Ellipse 51" cx="2.058" cy="0.587" rx="2.058" ry="0.587" transform="matrix(0.984, -0.181, 0.181, 0.984, 127.202, 159.623)" fill="#6c63ff" opacity="0.9"/>
      <ellipse id="Ellipse_52" data-name="Ellipse 52" cx="2.065" cy="0.59" rx="2.065" ry="0.59" transform="translate(129.481 160.859) rotate(-10.63)" fill="#6c63ff" opacity="0.9"/>
      <ellipse id="Ellipse_53" data-name="Ellipse 53" cx="2.065" cy="0.59" rx="2.065" ry="0.59" transform="translate(134.842 157.448) rotate(-10.63)" fill="#6c63ff" opacity="0.9"/>
      <ellipse id="Ellipse_54" data-name="Ellipse 54" cx="2.065" cy="0.59" rx="2.065" ry="0.59" transform="translate(137.054 156.437) rotate(-10.63)" fill="#6c63ff" opacity="0.9"/>
      <ellipse id="Ellipse_55" data-name="Ellipse 55" cx="2.065" cy="0.59" rx="2.065" ry="0.59" transform="translate(137.269 157.595) rotate(-10.63)" fill="#6c63ff" opacity="0.9"/>
      <ellipse id="Ellipse_56" data-name="Ellipse 56" cx="2.065" cy="0.59" rx="2.065" ry="0.59" transform="translate(134.699 159.878) rotate(-10.63)" fill="#6c63ff" opacity="0.9"/>
      <ellipse id="Ellipse_57" data-name="Ellipse 57" cx="2.065" cy="0.59" rx="2.065" ry="0.59" transform="translate(135.276 159.769) rotate(-10.63)" fill="#6c63ff" opacity="0.9"/>
      <ellipse id="Ellipse_58" data-name="Ellipse 58" cx="2.065" cy="0.59" rx="2.065" ry="0.59" transform="translate(134.699 159.878) rotate(-10.63)" fill="#6c63ff" opacity="0.9"/>
      <ellipse id="Ellipse_59" data-name="Ellipse 59" cx="2.065" cy="0.59" rx="2.065" ry="0.59" transform="translate(132.959 160.202) rotate(-10.63)" fill="#6c63ff" opacity="0.9"/>
      <ellipse id="Ellipse_60" data-name="Ellipse 60" cx="2.065" cy="0.59" rx="2.065" ry="0.59" transform="translate(130.205 158.323) rotate(-10.63)" fill="#3f3d56" opacity="0.9"/>
      <ellipse id="Ellipse_61" data-name="Ellipse 61" cx="2.065" cy="0.59" rx="2.065" ry="0.59" transform="translate(131.005 159.367) rotate(-10.63)" fill="#6c63ff" opacity="0.9"/>
      <ellipse id="Ellipse_62" data-name="Ellipse 62" cx="2.065" cy="0.59" rx="2.065" ry="0.59" transform="translate(132.416 157.304) rotate(-10.63)" fill="#3f3d56" opacity="0.9"/>
      <ellipse id="Ellipse_63" data-name="Ellipse 63" cx="2.065" cy="0.59" rx="2.065" ry="0.59" transform="translate(132.631 158.467) rotate(-10.63)" fill="#6c63ff" opacity="0.9"/>
      <ellipse id="Ellipse_64" data-name="Ellipse 64" cx="2.065" cy="0.59" rx="2.065" ry="0.59" transform="translate(132.164 159.157) rotate(-10.63)" fill="#3f3d56" opacity="0.9"/>
      <ellipse id="Ellipse_65" data-name="Ellipse 65" cx="2.065" cy="0.59" rx="2.065" ry="0.59" transform="translate(134.48 158.72) rotate(-10.63)" fill="#6c63ff" opacity="0.9"/>
      <ellipse id="Ellipse_66" data-name="Ellipse 66" cx="2.065" cy="0.59" rx="2.065" ry="0.59" transform="translate(136.076 160.818) rotate(-10.63)" fill="#6c63ff" opacity="0.9"/>
      <ellipse id="Ellipse_67" data-name="Ellipse 67" cx="2.065" cy="0.59" rx="2.065" ry="0.59" transform="translate(136.691 157.701) rotate(-10.63)" fill="#6c63ff" opacity="0.9"/>
      <ellipse id="Ellipse_68" data-name="Ellipse 68" cx="2.065" cy="0.59" rx="2.065" ry="0.59" transform="translate(136.906 158.863) rotate(-10.63)" fill="#6c63ff" opacity="0.9"/>
      <ellipse id="Ellipse_69" data-name="Ellipse 69" cx="2.065" cy="0.59" rx="2.065" ry="0.59" transform="translate(137.811 160.494) rotate(-10.63)" fill="#6c63ff" opacity="0.9"/>
      <ellipse id="Ellipse_70" data-name="Ellipse 70" cx="2.065" cy="0.59" rx="2.065" ry="0.59" transform="translate(143.174 157.087) rotate(-10.63)" fill="#6c63ff" opacity="0.9"/>
      <ellipse id="Ellipse_71" data-name="Ellipse 71" cx="2.065" cy="0.59" rx="2.065" ry="0.59" transform="translate(145.386 156.072) rotate(-10.63)" fill="#6c63ff" opacity="0.9"/>
      <ellipse id="Ellipse_72" data-name="Ellipse 72" cx="2.065" cy="0.59" rx="2.065" ry="0.59" transform="translate(145.604 157.231) rotate(-10.63)" fill="#a1616a" opacity="0.9"/>
      <ellipse id="Ellipse_73" data-name="Ellipse 73" cx="2.065" cy="0.59" rx="2.065" ry="0.59" transform="translate(143.03 159.513) rotate(-10.63)" fill="#6c63ff" opacity="0.9"/>
      <ellipse id="Ellipse_74" data-name="Ellipse 74" cx="2.065" cy="0.59" rx="2.065" ry="0.59" transform="translate(143.611 159.403) rotate(-10.63)" fill="#6c63ff" opacity="0.9"/>
      <ellipse id="Ellipse_75" data-name="Ellipse 75" cx="2.065" cy="0.59" rx="2.065" ry="0.59" transform="translate(143.03 159.513) rotate(-10.63)" fill="#6c63ff" opacity="0.9"/>
      <ellipse id="Ellipse_76" data-name="Ellipse 76" cx="2.065" cy="0.59" rx="2.065" ry="0.59" transform="translate(141.291 159.841) rotate(-10.63)" fill="#6c63ff" opacity="0.9"/>
      <ellipse id="Ellipse_77" data-name="Ellipse 77" cx="2.058" cy="0.587" rx="2.058" ry="0.587" transform="matrix(0.984, -0.181, 0.181, 0.984, 137.141, 158.402)" fill="#a1616a" opacity="0.9"/>
      <ellipse id="Ellipse_78" data-name="Ellipse 78" cx="2.065" cy="0.59" rx="2.065" ry="0.59" transform="translate(139.337 159.007) rotate(-10.63)" fill="#6c63ff" opacity="0.9"/>
      <path id="Path_65" data-name="Path 65" d="M384.507,226.25l-.437.437s19.821,31,24.209,34.3l1.349-1.092S404.563,250.595,384.507,226.25Z" transform="translate(-290.393 -146.881)" fill="#2f2e41"/>
      <path id="Path_66" data-name="Path 66" d="M441.41,303.9s-1.044-1.886-1.445-1.511-1.694,1.249-1.524,1.524,1.31,1.786,1.31,1.786a2.213,2.213,0,0,0,1.952-1.345Z" transform="translate(-321.013 -189.742)" fill="#464353"/>
      <path id="Path_67" data-name="Path 67" d="M449.65,316.329l-.223-.052s.175-1.009-2.214-2.048a13.486,13.486,0,0,0-1.336-.493c-3.668-1.157-5.1-3.7-4.367-5.515a1.514,1.514,0,0,1,.07-.179l1.528-1.2.179.153a15.389,15.389,0,0,0,3.013,1.917,6.113,6.113,0,0,1,3.083,3.135A7.379,7.379,0,0,1,449.65,316.329Z" transform="translate(-322.646 -192.279)" fill="#fdd8d8" opacity="0.9"/>
      <path id="Path_68" data-name="Path 68" d="M444.881,307.58s.52,1.135,3.253,2.476,3.314,5.24,3.314,5.24-1.424-3.611-3.611-4.275-3.157-3.236-3.157-3.236Z" transform="translate(-324.536 -192.696)" fill="none" stroke="#2f2e41" stroke-miterlimit="10" stroke-width="0.25" opacity="0.2"/>
      <path id="Path_69" data-name="Path 69" d="M443.814,308.61a3.585,3.585,0,0,0,1.668,2.891c1.79,1.358,5.192,3.55,5.266,4.581a11.391,11.391,0,0,0-3.057-2.275c-1.419-.568-3.354-1.716-3.572-2.782,0,0-.786-1.668-.555-2.319Z" transform="translate(-323.884 -193.276)" fill="none" stroke="#2f2e41" stroke-miterlimit="10" stroke-width="0.25" opacity="0.2"/>
      <path id="Path_70" data-name="Path 70" d="M442.738,309.39s-.734,1.472,1.057,3.528a7.664,7.664,0,0,0,3.035,1.72,7.38,7.38,0,0,1,3.231,2.236" transform="translate(-323.358 -193.716)" fill="none" stroke="#2f2e41" stroke-miterlimit="10" stroke-width="0.25" opacity="0.2"/>
      <ellipse id="Ellipse_79" data-name="Ellipse 79" cx="2.065" cy="0.59" rx="2.065" ry="0.59" transform="translate(140.748 156.944) rotate(-10.63)" fill="#3f3d56" opacity="0.9"/>
      <ellipse id="Ellipse_80" data-name="Ellipse 80" cx="2.065" cy="0.59" rx="2.065" ry="0.59" transform="translate(140.966 158.097) rotate(-10.63)" fill="#6c63ff" opacity="0.9"/>
      <ellipse id="Ellipse_81" data-name="Ellipse 81" cx="2.065" cy="0.59" rx="2.065" ry="0.59" transform="translate(140.495 158.788) rotate(-10.63)" fill="#6c63ff" opacity="0.9"/>
      <path id="Path_71" data-name="Path 71" d="M318.354,301.794a8.668,8.668,0,0,1-.376,2.45c-.17.415-.437.79-.629,1.2-.852,1.747-.476,3.795-.594,5.729a22.355,22.355,0,0,1-.533,3.253c-.956,4.454-1.913,8.913-3.057,13.332-.376,1.48-.755,3.109-.083,4.476.175.354.41.672.555,1.039.4,1,.031,2.183.38,3.2a2.463,2.463,0,0,0,2.537,1.611c.245-4.179,2.205-8.083,4.594-11.524a14.959,14.959,0,0,1,4.087-4.288,11.066,11.066,0,0,0,2.41-1.638,5.625,5.625,0,0,0,1.205-2.878c1.153-6.454-1.611-12.943-4.8-18.677-.664-1.192-2.07-3.843-3.472-2.843S318.516,300.187,318.354,301.794Z" transform="translate(-250.196 -186.181)" fill="#3f3d56"/>
      <path id="Path_72" data-name="Path 72" d="M384,187.365c-7.816,0-14.288-2.812-15.445-6.485a3.865,3.865,0,0,0-.183,1.179c0,4.231,6.987,7.664,15.629,7.664s15.624-3.432,15.624-7.664a3.864,3.864,0,0,0-.183-1.179C398.282,184.552,391.811,187.365,384,187.365Z" transform="translate(-281.549 -121.323)" opacity="0.1"/>
      <g id="Group_40" data-name="Group 40" transform="translate(62.535 82.909)" opacity="0.1">
        <path id="Path_73" data-name="Path 73" d="M317.228,298.536c-.148-.367-.384-.686-.559-1.039-.672-1.367-.293-3,.087-4.476,1.122-4.419,2.079-8.878,3.057-13.332a21.759,21.759,0,0,0,.528-3.253c.118-1.934-.253-3.991.594-5.729.2-.406.458-.782.629-1.2a8.515,8.515,0,0,0,.376-2.45,12.389,12.389,0,0,1,1.148-4.166c-.1-1.275-.114-2.559-.131-3.817a18.14,18.14,0,0,1,.227-3,3.6,3.6,0,0,1,1.808-2.948,8.62,8.62,0,0,0,1.24-4.52,9.622,9.622,0,0,1,.384-3.148c.777-1.974,3.057-2.908,5.14-3.218s4.31-.236,6.24-1.122a13.24,13.24,0,0,0,2.07-1.262c1.882-1.31,3.769-2.62,5.55-4.065l-1.485-1.31c-.079-.066-.166-.144-.266-.131a.437.437,0,0,0-.2.114,73.644,73.644,0,0,1-7.166,5.406,13.245,13.245,0,0,1-2.07,1.262c-1.93.873-4.14.808-6.24,1.122s-4.367,1.245-5.144,3.218a9.506,9.506,0,0,0-.384,3.148,8.409,8.409,0,0,1-1.236,4.52,3.618,3.618,0,0,0-1.812,2.948,18.623,18.623,0,0,0-.205,3c0,1.258.035,2.541.131,3.817a12.288,12.288,0,0,0-1.148,4.166,8.668,8.668,0,0,1-.376,2.45c-.17.415-.437.79-.629,1.2-.852,1.747-.476,3.795-.594,5.729a22.356,22.356,0,0,1-.533,3.253c-.956,4.454-1.913,8.913-3.057,13.332-.376,1.48-.755,3.109-.083,4.476.175.354.41.672.555,1.039.4,1,.031,2.183.38,3.2a2.463,2.463,0,0,0,2.537,1.611,16.952,16.952,0,0,1,.786-4.122,2.691,2.691,0,0,0-.153-.7Z" transform="translate(-312.754 -234.357)"/>
        <path id="Path_74" data-name="Path 74" d="M419.535,255.565c.223.437.437.873.629,1.31a23.805,23.805,0,0,1,1.332,3.777,18.965,18.965,0,0,1,.437,2.07c.083.5.153,1.009.2,1.524q.031.253.052.511a2.183,2.183,0,0,0,.843-.371,1.716,1.716,0,0,0,.6-.773,4.09,4.09,0,0,0,.227-.873,9.046,9.046,0,0,0,.092-1.144c0-.437.026-.913.026-1.367a12.323,12.323,0,0,0-.223-2.371c-.288-1.432-.926-2.773-1.31-4.183-.031-.1-.052-.21-.079-.314a3.261,3.261,0,0,1-.4-1.371c-.271-.153-.288-.4-.28-.707a4.463,4.463,0,0,0-.367-1.83,1.411,1.411,0,0,0-.873-.873c-.546-.114-1.048.358-1.31.843a5.71,5.71,0,0,0-.21,4.275C419.086,254.316,419.313,254.94,419.535,255.565Z" transform="translate(-372.385 -242.358)"/>
        <path id="Path_75" data-name="Path 75" d="M354.651,455.918c-.747-4.939-1.851-9.83-2.419-14.794-1.052-9.218-.271-18.554-1.035-27.8-.31-3.729-.873-7.423-1.2-11.153-.773-8.816-1.629-18.2,2.031-26.257.528-1.162,1.052-2.319,1.581-3.472a2.717,2.717,0,0,0,.3-.974,1.385,1.385,0,0,0-.07-.507c-.214-.734-.921-1.31-1.345-2a6.357,6.357,0,0,1-.537-3.9c.048-.563.2-1.026.236-1.589a21.122,21.122,0,0,1-3.1-7.1c-.175-.655-.336-1.31-.489-1.978-.437.262-.873.493-1.31.76a10.153,10.153,0,0,0-1.707,1.375,20.8,20.8,0,0,0,3.057,6.939c-.039.563-.188,1.026-.236,1.589a6.326,6.326,0,0,0,.537,3.9,9.183,9.183,0,0,1,1.345,2,1.481,1.481,0,0,1,.07.507,2.715,2.715,0,0,1-.3.974l-1.581,3.472c-3.664,8.057-2.808,17.441-2.035,26.257.332,3.725.873,7.423,1.2,11.153.769,9.244,0,18.581,1.039,27.8.568,4.965,1.668,9.856,2.419,14.794a106.8,106.8,0,0,1,1.175,13.611,22.86,22.86,0,0,1,3.493-.8A105.865,105.865,0,0,0,354.651,455.918Z" transform="translate(-331.251 -301.98)"/>
        <path id="Path_76" data-name="Path 76" d="M401.1,618.818c-6.113-1.808-12.537-3.563-18.777-3.192,5.109.288,10.288,1.747,15.24,3.192a19.2,19.2,0,0,0,7.34,1.175,4.277,4.277,0,0,0,.616-.092A32.121,32.121,0,0,1,401.1,618.818Z" transform="translate(-351.942 -449.107)"/>
      </g>
      <path id="Path_77" data-name="Path 77" d="M317.82,311.258l1.921,4.646a5.367,5.367,0,0,0,1.393,2.227,3.611,3.611,0,0,0,3.057.559,10.733,10.733,0,0,0,2.913-1.31c2.913-1.655,5.825-3.314,8.659-5.109a107.984,107.984,0,0,0,14.847-11.323c2.978-2.707,5.8-5.585,8.624-8.458l4.515-4.616c.786-.795.76-2.127.742-3.244-.061-3.493-1.747-6.742-2.153-10.2a2.3,2.3,0,0,1,.118-1.31.873.873,0,0,1,1.109-.437c.633.327.21,1.41.681,1.948.437.467,1.271.144,1.524-.437a2.843,2.843,0,0,0-.061-1.843l.546-.227c.834-1.59-.031-3.664-1.5-4.707a9.064,9.064,0,0,0-5.144-1.31V264.8a20.165,20.165,0,0,1,7.629.646c.376-.437.135-1.092-.214-1.533a5.284,5.284,0,0,0-4.873-1.642,15.706,15.706,0,0,0-5,1.913l2.371-5.943a3.9,3.9,0,0,0,.4-1.747,1.336,1.336,0,0,0-1.074-1.271l-1.659,2.93c-1.555,2.747-3.148,5.62-3.341,8.768a20.737,20.737,0,0,0,.507,5.022c.275,1.5.179,2.934.594,4.4a45.85,45.85,0,0,1,1.227,5.677,4.8,4.8,0,0,1-.079,2.441c-.541,1.415-2.183,2.031-3.231,3.118a8.449,8.449,0,0,0-4.712,2.375A37.767,37.767,0,0,1,341.165,295a45.537,45.537,0,0,1-5.157,2.205,18.178,18.178,0,0,1-6.083,1.541c-1.568,0-3.183-.354-4.677.118-2.249.7-3.493,3.057-4.5,5.17l-1.664,3.493A25.729,25.729,0,0,0,317.82,311.258Z" transform="translate(-253.073 -163.2)" fill="#fbbebe"/>
      <path id="Path_78" data-name="Path 78" d="M323.432,358.836a14.972,14.972,0,0,1,4.205-4.367c.323-.2.655-.384.983-.572a11.45,11.45,0,0,0-3.961.14c-2.31.725-3.589,3.118-4.629,5.3l-1.72,3.568a26.3,26.3,0,0,0-1.31,3.8l1.638,3.93h.039C318.948,366.352,320.969,362.36,323.432,358.836Z" transform="translate(-252.611 -218.73)" fill="#3f3d56"/>
      <ellipse id="Ellipse_82" data-name="Ellipse 82" cx="1.179" cy="1.415" rx="1.179" ry="1.415" transform="translate(143.436 145.656)" fill="#fbbebe"/>
      <ellipse id="Ellipse_83" data-name="Ellipse 83" cx="1.179" cy="1.415" rx="1.179" ry="1.415" transform="translate(143.436 146.364)" fill="#fbbebe"/>
      <path id="Path_79" data-name="Path 79" d="M456.758,323.958l-.3-.061s.236-1.236-2.987-2.5a2.7,2.7,0,0,1,.087-.629,2.275,2.275,0,0,1,.153-.489,2.221,2.221,0,0,1,.231-.437,2.41,2.41,0,0,1,.729-.795,2.086,2.086,0,0,1,.655-.306,1.873,1.873,0,0,1,.524-.07,2.485,2.485,0,0,1,.541.07A8.275,8.275,0,0,1,456.758,323.958Z" transform="translate(-329.488 -198.943)" fill="#6c63ff" opacity="0.9"/>
      <path id="Path_80" data-name="Path 80" d="M281.365,705s2.716,3.55-1.253,8.912-7.24,9.886-5.917,13.231c0,0,5.987-9.956,10.86-10.1S286.714,710.991,281.365,705Z" transform="translate(-228.329 -416.573)" fill="#65a093"/>
      <path id="Path_81" data-name="Path 81" d="M281.564,705a4.367,4.367,0,0,1,.555,1.114c4.755,5.589,7.288,10.8,2.72,10.917-4.258.118-9.367,7.734-10.589,9.655a4,4,0,0,0,.144.437s5.987-9.956,10.86-10.1S286.914,710.991,281.564,705Z" transform="translate(-228.529 -416.573)" opacity="0.1"/>
      <path id="Path_82" data-name="Path 82" d="M301.724,714.345c0,1.249-.14,2.262-.314,2.262s-.31-1.013-.31-2.262.175-.664.345-.664S301.724,713.092,301.724,714.345Z" transform="translate(-243.654 -421.385)" fill="#ffd037"/>
      <path id="Path_83" data-name="Path 83" d="M303.739,717.686c-1.1.6-2.057.961-2.135.808s.738-.76,1.834-1.358.664-.162.747,0S304.83,717.088,303.739,717.686Z" transform="translate(-243.935 -423.237)" fill="#ffd037"/>
      <path id="Path_84" data-name="Path 84" d="M250.269,705s-2.716,3.55,1.253,8.912,7.24,9.886,5.917,13.231c0,0-5.987-9.956-10.86-10.1S244.907,710.991,250.269,705Z" transform="translate(-211.587 -416.573)" fill="#65a093"/>
      <path id="Path_85" data-name="Path 85" d="M250.269,705a4.367,4.367,0,0,0-.555,1.114c-4.755,5.589-7.288,10.8-2.72,10.917,4.258.118,9.367,7.734,10.589,9.655a3.987,3.987,0,0,1-.144.437s-5.987-9.956-10.86-10.1S244.907,710.991,250.269,705Z" transform="translate(-211.587 -416.573)" opacity="0.1"/>
      <path id="Path_86" data-name="Path 86" d="M246.57,714.345c0,1.249.14,2.262.314,2.262s.31-1.013.31-2.262-.175-.664-.345-.664S246.57,713.092,246.57,714.345Z" transform="translate(-212.936 -421.385)" fill="#ffd037"/>
      <path id="Path_87" data-name="Path 87" d="M241.741,717.686c1.1.6,2.052.961,2.135.808s-.738-.76-1.834-1.358-.664-.162-.747,0S240.645,717.088,241.741,717.686Z" transform="translate(-209.84 -423.237)" fill="#ffd037"/>
      <path id="Path_88" data-name="Path 88" d="M248.55,749.357s7.589-.231,9.878-1.865,11.681-3.572,12.249-.961,11.406,13,2.834,13.065-19.912-1.336-22.2-2.725S248.55,749.357,248.55,749.357Z" transform="translate(-214.051 -439.249)" fill="#a8a8a8"/>
      <path id="Path_89" data-name="Path 89" d="M273.663,763.95c-8.568.07-19.912-1.336-22.2-2.725-1.747-1.061-2.432-4.865-2.664-6.616h-.253s.48,6.113,2.764,7.515,13.629,2.795,22.2,2.725c2.476,0,3.332-.9,3.284-2.205C276.449,763.453,275.506,763.95,273.663,763.95Z" transform="translate(-214.051 -444.52)" opacity="0.2"/>
      <path id="Path_90" data-name="Path 90" d="M733.076,666.343s-4.852-16.476.908-28.6a26.021,26.021,0,0,0,2.1-16.327,43.822,43.822,0,0,0-2.31-7.664" transform="translate(-485.921 -365.17)" fill="none" stroke="#535461" stroke-miterlimit="10" stroke-width="2"/>
      <path id="Path_91" data-name="Path 91" d="M735.924,591.642c0,2.022-3.655,7.86-3.655,7.86s-3.659-5.856-3.659-7.86a3.659,3.659,0,0,1,7.314,0Z" transform="translate(-484.481 -350.725)" fill="#6c63ff"/>
      <path id="Path_92" data-name="Path 92" d="M749.719,614.539c-1.1,1.694-7.349,4.62-7.349,4.62s.114-6.9,1.21-8.594a3.657,3.657,0,0,1,6.14,3.974Z" transform="translate(-492.233 -362.435)" fill="#6c63ff"/>
      <path id="Path_93" data-name="Path 93" d="M747.4,656.658c-1.8.908-8.677.279-8.677.279s3.585-5.9,5.384-6.812a3.666,3.666,0,0,1,3.292,6.55Z" transform="translate(-490.177 -385.44)" fill="#6c63ff"/>
      <path id="Path_94" data-name="Path 94" d="M739.706,690.091c-1.624,1.2-8.506,1.747-8.506,1.747s2.533-6.419,4.157-7.62a3.661,3.661,0,1,1,4.367,5.878Z" transform="translate(-485.94 -404.459)" fill="#6c63ff"/>
      <path id="Path_95" data-name="Path 95" d="M723.362,625.2c1.45,1.406,8.2,2.865,8.2,2.865s-1.655-6.7-3.1-8.109a3.655,3.655,0,1,0-5.1,5.24Z" transform="translate(-480.901 -368.082)" fill="#6c63ff"/>
      <path id="Path_96" data-name="Path 96" d="M713.527,663.128c1.8.908,8.677.279,8.677.279s-3.581-5.9-5.384-6.812a3.659,3.659,0,0,0-3.292,6.533Z" transform="translate(-474.905 -389.111)" fill="#6c63ff"/>
      <path id="Path_97" data-name="Path 97" d="M710.733,702.326c1.62,1.2,8.5,1.747,8.5,1.747s-2.533-6.424-4.157-7.624a3.663,3.663,0,1,0-4.367,5.882Z" transform="translate(-473.565 -411.349)" fill="#6c63ff"/>
      <path id="Path_98" data-name="Path 98" d="M735.924,591.642c0,2.022-3.655,7.86-3.655,7.86s-3.659-5.856-3.659-7.86a3.659,3.659,0,0,1,7.314,0Z" transform="translate(-484.481 -350.725)" fill="#4f9589"/>
      <path id="Path_99" data-name="Path 99" d="M749.719,614.539c-1.1,1.694-7.349,4.62-7.349,4.62s.114-6.9,1.21-8.594a3.657,3.657,0,0,1,6.14,3.974Z" transform="translate(-492.233 -362.435)" fill="#4f9589"/>
      <path id="Path_100" data-name="Path 100" d="M747.4,656.658c-1.8.908-8.677.279-8.677.279s3.585-5.9,5.384-6.812a3.666,3.666,0,0,1,3.292,6.55Z" transform="translate(-490.177 -385.44)" fill="#4f9589"/>
      <path id="Path_101" data-name="Path 101" d="M739.706,690.091c-1.624,1.2-8.506,1.747-8.506,1.747s2.533-6.419,4.157-7.62a3.661,3.661,0,1,1,4.367,5.878Z" transform="translate(-485.94 -404.459)" fill="#4f9589"/>
      <path id="Path_102" data-name="Path 102" d="M723.362,625.2c1.45,1.406,8.2,2.865,8.2,2.865s-1.655-6.7-3.1-8.109a3.655,3.655,0,1,0-5.1,5.24Z" transform="translate(-480.901 -368.082)" fill="#4f9589"/>
      <path id="Path_103" data-name="Path 103" d="M713.527,663.128c1.8.908,8.677.279,8.677.279s-3.581-5.9-5.384-6.812a3.659,3.659,0,0,0-3.292,6.533Z" transform="translate(-474.905 -389.111)" fill="#4f9589"/>
      <path id="Path_104" data-name="Path 104" d="M710.733,702.326c1.62,1.2,8.5,1.747,8.5,1.747s-2.533-6.424-4.157-7.624a3.663,3.663,0,1,0-4.367,5.882Z" transform="translate(-473.565 -411.349)" fill="#4f9589"/>
      <path id="Path_105" data-name="Path 105" d="M709.27,724.377s5.913-1.175,7.485-2.738,8.668-4.3,9.458-2.345,10.633,8.6,3.93,9.777-15.76,1.563-17.729.782S709.27,724.377,709.27,724.377Z" transform="translate(-473.587 -424.243)" fill="#a8a8a8"/>
      <path id="Path_106" data-name="Path 106" d="M730.152,735.707c-6.7,1.175-15.76,1.568-17.729.786-1.5-.6-2.542-3.458-2.956-4.8l-.2.039s1.183,4.694,3.153,5.476,11.03.393,17.729-.782c1.93-.341,2.485-1.135,2.275-2.14C732.261,734.952,731.588,735.458,730.152,735.707Z" transform="translate(-473.587 -431.608)" opacity="0.2"/>
      <g id="Group_41" data-name="Group 41" transform="translate(163.524 81.413)" opacity="0.75">
        <path id="Path_107" data-name="Path 107" d="M603.44,317.374a4.741,4.741,0,0,1-.258-.664,6.156,6.156,0,0,1,.039-1.624,5.739,5.739,0,0,0-.127-1.122c-.258-1.41-.511-2.825-.769-4.24-.118-.651-.236-1.31-.293-1.961s-.048-1.354-.061-2.031c-.031-2.183-.437-4.367-.5-6.572-.048-1.14-.135-2.279-.227-3.419-.161-1.956-.332-3.93-.677-5.843-.271-1.533-1.039-2.965-1.057-4.52,0-.808,0-1.616-.022-2.424a4.646,4.646,0,0,0-.323-2.035,4.472,4.472,0,0,0-1.2-1.367q-2.061-1.782-4.271-3.384a2.62,2.62,0,0,0,1.336-.1.873.873,0,0,0,.511-1.1,1.1,1.1,0,0,0-.677-.489,6.2,6.2,0,0,0-1.624-.262,5.989,5.989,0,0,0,.118-.633c.288-2.253-.843-4.463-.838-6.734,0-2.341,1.188-4.485,1.873-6.72a16.235,16.235,0,0,0-.48-10.8c-.738-1.817-1.817-3.524-2.183-5.45-.284-1.511-.1-3.057-.362-4.589-.646-3.856-4.083-6.821-7.86-7.86a19.728,19.728,0,0,0-8.808,0c-2.52.467-4.8-.563-7.336-.231a3.982,3.982,0,0,0-2.651,1.214,14.384,14.384,0,0,0-.873,1.48c-1.122,1.747-3.349,2.345-5.2,3.3a10.07,10.07,0,0,0-5.472,7.314c-.389,2.908.755,5.79.93,8.733.223,3.738-1.135,7.362-2.284,10.917a8.529,8.529,0,0,0-.572,3.057,8.215,8.215,0,0,0,.472,2.087c.362,1.1.773,2.183,1.24,3.253a10.835,10.835,0,0,1-2.716.712,6.958,6.958,0,0,0-2.795.555,3.267,3.267,0,0,0-.969.926,5.087,5.087,0,0,0-.873,3.838,1.192,1.192,0,0,0-.555,1.022c-.022.406.07.808.087,1.214a7.672,7.672,0,0,1-.437,2.245,19.034,19.034,0,0,0-.5,7.624c.559,4.079.668,8.127.847,12.227a66.471,66.471,0,0,0,.341,8.083,3.854,3.854,0,0,0,1.127,2.393,4.917,4.917,0,0,1,.507.393,3.274,3.274,0,0,1,.537,1.6,3.441,3.441,0,0,0,3.546,2.528h0c-.293.873-.581,1.681-.873,2.52H595.1c-.026-.1-.052-.21-.074-.314a4.724,4.724,0,0,1-.031-1.336c.375.437.31,1.079.41,1.651h8.428A7.267,7.267,0,0,0,603.44,317.374Z" transform="translate(-544.023 -230.93)" fill="url(#linear-gradient-2)"/>
        <path id="Path_108" data-name="Path 108" d="M577.354,232.431a3.915,3.915,0,0,0-2.62,1.21,13.727,13.727,0,0,0-.873,1.472c-1.114,1.747-3.327,2.327-5.161,3.279a9.989,9.989,0,0,0-5.432,7.266c-.389,2.891.747,5.755.921,8.664.218,3.712-1.127,7.314-2.266,10.856a8.506,8.506,0,0,0-.572,3.057,8.118,8.118,0,0,0,.472,2.074,27.494,27.494,0,0,0,4.581,8.856,15.437,15.437,0,0,0,8.223,5.423,23.524,23.524,0,0,0,4.533.48q3.493.131,6.987.131a20.01,20.01,0,0,0,3.825-.258c2.668-.52,5.017-2.026,7.3-3.493,2.62-1.7,5.5-3.795,5.9-6.9.284-2.236-.834-4.432-.834-6.69s1.179-4.454,1.86-6.672a16.157,16.157,0,0,0-.48-10.751c-.734-1.808-1.8-3.493-2.183-5.419-.284-1.5-.109-3.057-.362-4.559-.642-3.83-4.052-6.773-7.8-7.79a19.527,19.527,0,0,0-8.734,0C582.158,233.125,579.856,232.095,577.354,232.431Z" transform="translate(-553.784 -231.627)" fill="#3f3d56"/>
        <path id="Path_109" data-name="Path 109" d="M588.61,297.578a9.428,9.428,0,0,1-1.175,7.1,11.432,11.432,0,0,1-2.528,2.642,16.179,16.179,0,0,1-4.987,2.755,10.043,10.043,0,0,0,3.834,1.865,18.244,18.244,0,0,0,3.271.4,93.015,93.015,0,0,0,16.537-.6,10.936,10.936,0,0,0,5.24-1.655.742.742,0,0,0,.293-.345c.1-.362-.328-.638-.686-.76-1.747-.607-3.672-.952-5.2-2.026-2.341-1.646-3.319-4.664-3.528-7.515s.2-5.729-.079-8.581q-5.677-.083-11.354.332c-.437.031-2.323-.074-2.55.288s.8,1.415,1.065,1.812A12.59,12.59,0,0,1,588.61,297.578Z" transform="translate(-564.245 -264.683)" fill="#fbbebe"/>
        <circle id="Ellipse_84" data-name="Ellipse 84" cx="12.912" cy="12.912" r="12.912" transform="translate(16.689 7.153)" opacity="0.1"/>
        <circle id="Ellipse_85" data-name="Ellipse 85" cx="12.912" cy="12.912" r="12.912" transform="translate(16.689 6.694)" fill="#fbbebe"/>
        <path id="Path_110" data-name="Path 110" d="M604.31,348.539a39.4,39.4,0,0,0-1.275,13.231c.3,2.934,1.31,6.113,1.38,9.118H572.4V360.251a59,59,0,0,0-.223-6.275,45.878,45.878,0,0,0-2.559-10.86l-.275-.769h0a.086.086,0,0,0-.035-.083c-.092-.262-.192-.52-.288-.782-1.559-4.14-3.341-8.437-2.485-12.742a11.035,11.035,0,0,1,5.319-7.384,6,6,0,0,1,2.755-.847c1.664-.026,3.162.952,4.55,1.878.659.437,1.31.873,2,1.31a22.106,22.106,0,0,0,5.135,2.454,10.271,10.271,0,0,0,7.86-.489,9.207,9.207,0,0,0,1.31-.9,14.956,14.956,0,0,0,2.157-2.271c.629,1.223,1.991,1.747,3.122,2.511a9.764,9.764,0,0,1,3.419,4.563,25.16,25.16,0,0,1,1.31,5.624,29.285,29.285,0,0,1,.375,5.677A44.636,44.636,0,0,1,604.31,348.539Z" transform="translate(-556.578 -281.392)" fill="#3f3d56"/>
        <path id="Path_111" data-name="Path 111" d="M573,369.157H551.094c.293-.838.576-1.655.873-2.507h-.039a3.41,3.41,0,0,1-3.52-2.515,3.241,3.241,0,0,0-.537-1.585,4.376,4.376,0,0,0-.5-.389,3.661,3.661,0,0,1-1.118-2.38,66.474,66.474,0,0,1-.341-8.03c-.179-4.087-.288-8.113-.843-12.166a18.929,18.929,0,0,1,.493-7.572,7.584,7.584,0,0,0,.437-2.231c0-.4-.109-.8-.087-1.205a1.175,1.175,0,0,1,.55-1.013,5.069,5.069,0,0,1,.873-3.817,3.34,3.34,0,0,1,.965-.921,7.016,7.016,0,0,1,2.773-.55c4.41-.5,7.9-4.367,12.319-4.8a16.664,16.664,0,0,1,2.987.07c1.624.135,2.218,2.183,2.594,3.782.052.21.1.437.14.629.83,3.93.677,8.035.677,12.074a10.208,10.208,0,0,0,.375,2.741,35.437,35.437,0,0,1,.874,7.512,170.183,170.183,0,0,0,1.773,17.615,32.28,32.28,0,0,1,.406,3.3,19.994,19.994,0,0,1-.218,3.961Z" transform="translate(-544.514 -279.661)" fill="#f86d70"/>
        <path id="Path_112" data-name="Path 112" d="M589.181,358.286a12.558,12.558,0,0,1,1.275,1.725c.175.288.319.707.061.926a.764.764,0,0,1-.472.131l-3.057.131a3.56,3.56,0,0,1-1.38-.127,3.494,3.494,0,0,1-1.432-1.279l-1.362-1.782a4.031,4.031,0,0,1-.873-1.537,1.38,1.38,0,0,1,.611-1.528,2.031,2.031,0,0,1,1.5.1,12.481,12.481,0,0,1,2.843,1.061,11.74,11.74,0,0,1,2.284,2.175Z" transform="translate(-565.357 -300.736)" fill="#f86d70"/>
        <path id="Path_113" data-name="Path 113" d="M589.181,358.286a12.558,12.558,0,0,1,1.275,1.725c.175.288.319.707.061.926a.764.764,0,0,1-.472.131l-3.057.131a3.56,3.56,0,0,1-1.38-.127,3.494,3.494,0,0,1-1.432-1.279l-1.362-1.782a4.031,4.031,0,0,1-.873-1.537,1.38,1.38,0,0,1,.611-1.528,2.031,2.031,0,0,1,1.5.1,12.481,12.481,0,0,1,2.843,1.061,11.74,11.74,0,0,1,2.284,2.175Z" transform="translate(-565.357 -300.736)" opacity="0.1"/>
        <path id="Path_114" data-name="Path 114" d="M583.45,327.386a43.724,43.724,0,0,1,1.542-5.913,13.85,13.85,0,0,0,.773-2.873c.083-.773,0-1.555.079-2.327.061-.668.223-1.31.323-1.983a9.96,9.96,0,0,0-.24-4.03c-.279-1.044,0-2.314-.681-3.162-.271-.345-.633-.607-.917-.943a1.31,1.31,0,0,1-.345-1.21,7.625,7.625,0,0,0,2.9.092,1.9,1.9,0,0,0,.812-.284.764.764,0,0,0,.341-.738,1.066,1.066,0,0,0-.555-.633,6.8,6.8,0,0,0-5.777-.646.336.336,0,0,1,.144-.41,1.235,1.235,0,0,1,.437-.144,3.013,3.013,0,0,0,2.153-1.869.637.637,0,0,0,.044-.41c-.114-.319-.568-.3-.9-.218l-1.782.437a4.183,4.183,0,0,0-1,.336,4.1,4.1,0,0,0-1.017.873,11.394,11.394,0,0,0-2.4,3.323c-.231.576-.367,1.188-.607,1.747a2.69,2.69,0,0,1-1.17,1.4,1.515,1.515,0,0,0-.764,1.607,4.5,4.5,0,0,0,.812,1.747,21.325,21.325,0,0,0,2.24,2.913,8.123,8.123,0,0,1,1.528,1.873c.253.515.362,1.092.585,1.616a3.542,3.542,0,0,1,.284.769,1.964,1.964,0,0,1,0,.576c-.371,2.9-2.524,5.271-3.327,8.083a.79.79,0,0,0,.437,1.035,17.43,17.43,0,0,0,5.345,2.384A20.2,20.2,0,0,0,583.45,327.386Z" transform="translate(-561.372 -269.632)" opacity="0.1"/>
        <path id="Path_115" data-name="Path 115" d="M582.893,327.086a43.734,43.734,0,0,1,1.541-5.913,13.579,13.579,0,0,0,.773-2.873c.083-.773,0-1.555.079-2.327.061-.668.223-1.31.323-1.983a9.96,9.96,0,0,0-.24-4.03c-.28-1.044,0-2.314-.681-3.162-.271-.345-.633-.607-.917-.943a1.31,1.31,0,0,1-.345-1.21,7.624,7.624,0,0,0,2.9.092,1.9,1.9,0,0,0,.812-.284.777.777,0,0,0,.345-.738,1.088,1.088,0,0,0-.559-.633,6.8,6.8,0,0,0-5.777-.646.336.336,0,0,1,.144-.41,1.231,1.231,0,0,1,.437-.144,3.013,3.013,0,0,0,2.148-1.869.629.629,0,0,0,.044-.406c-.114-.323-.568-.306-.873-.223l-1.777.437a4.149,4.149,0,0,0-1,.336,4.1,4.1,0,0,0-1.017.873,11.4,11.4,0,0,0-2.4,3.323c-.231.576-.367,1.188-.607,1.747a2.69,2.69,0,0,1-1.17,1.4,1.524,1.524,0,0,0-.764,1.607,4.5,4.5,0,0,0,.812,1.747,21.676,21.676,0,0,0,2.24,2.913,8.123,8.123,0,0,1,1.528,1.873c.253.515.362,1.092.585,1.62a3.425,3.425,0,0,1,.284.764,1.966,1.966,0,0,1,0,.576c-.371,2.9-2.524,5.271-3.327,8.083a.79.79,0,0,0,.437,1.035,17.428,17.428,0,0,0,5.345,2.384A20.193,20.193,0,0,0,582.893,327.086Z" transform="translate(-561.069 -269.463)" fill="#fbbebe"/>
        <path id="Path_116" data-name="Path 116" d="M587.973,359.545a.319.319,0,0,1,.148.135.327.327,0,0,1,0,.231,19.209,19.209,0,0,1-1.686,3.712q-2.083-1.144-4.065-2.45a2.183,2.183,0,0,1-.817-.769C579.6,356.636,586.676,358.789,587.973,359.545Z" transform="translate(-564.974 -302.65)" fill="#3f3d56"/>
        <path id="Path_117" data-name="Path 117" d="M564.046,360.555c-.458.611-.987,1.162-1.441,1.777a27.778,27.778,0,0,0-1.987,3.585,24.617,24.617,0,0,1-3.017,4.458c-1.175,1.38-2.581,2.795-2.712,4.6a1.441,1.441,0,0,1-.162.747,2.7,2.7,0,0,1-.533.437.44.44,0,0,0-.1.616c-.672.07-.952.873-1.083,1.541l-.3,1.528a6.031,6.031,0,0,0-.144,1.218,5.047,5.047,0,0,0,.4,1.607,26.008,26.008,0,0,0,2.76,5.327,5.09,5.09,0,0,0,2.039,1.974,5.62,5.62,0,0,0,2.62.245c1.245-.079,2.69-.275,3.31-1.358.393-.686.332-1.572.76-2.236a7.63,7.63,0,0,1,.821-.9,5.84,5.84,0,0,0,1.009-1.991,74.468,74.468,0,0,0,2.725-9.934,16.036,16.036,0,0,1,.9-3.332,18.665,18.665,0,0,1,1.659-2.738c1.1-1.672,1.271-3.122,2.035-4.974-1.686-.393-2.463-1.511-3.9-2.458-1.354-.9-3.358-2.8-4.8-3.493C564.421,357.992,564.819,359.507,564.046,360.555Z" transform="translate(-548.838 -301.836)" opacity="0.1"/>
        <path id="Path_118" data-name="Path 118" d="M561.691,358.455c-.437.611-.987,1.166-1.437,1.782a27.211,27.211,0,0,0-1.987,3.581,24.5,24.5,0,0,1-3.017,4.463c-1.179,1.38-2.581,2.79-2.712,4.6a1.462,1.462,0,0,1-.162.742,3.151,3.151,0,0,1-.537.437.44.44,0,0,0-.1.611c-.672.074-.952.873-1.079,1.546l-.3,1.528a5.46,5.46,0,0,0-.144,1.214,4.961,4.961,0,0,0,.4,1.611,26.108,26.108,0,0,0,2.755,5.327,5.1,5.1,0,0,0,2.044,1.974,5.621,5.621,0,0,0,2.62.245c1.24-.079,2.69-.279,3.306-1.358.393-.69.332-1.572.76-2.24a8.871,8.871,0,0,1,.821-.9,5.847,5.847,0,0,0,1.013-1.991,74.609,74.609,0,0,0,2.721-9.934,16.157,16.157,0,0,1,.873-3.336,19,19,0,0,1,1.659-2.734c1.109-1.672,1.044-2.664,1.808-4.52-1.686-.389-2.236-1.965-3.672-2.913-1.354-.9-3.354-2.8-4.8-3.493C562.071,355.9,562.469,357.416,561.691,358.455Z" transform="translate(-547.514 -300.653)" opacity="0.1"/>
        <path id="Path_119" data-name="Path 119" d="M563,359.5c-.437.611-.987,1.166-1.437,1.777a27.04,27.04,0,0,0-1.987,3.585,24.318,24.318,0,0,1-3.017,4.458c-1.179,1.384-2.581,2.795-2.712,4.6a1.476,1.476,0,0,1-.161.747,3.373,3.373,0,0,1-.537.437.44.44,0,0,0-.1.611c-.672.07-.952.873-1.079,1.546l-.3,1.528a5.424,5.424,0,0,0-.144,1.214,5.066,5.066,0,0,0,.393,1.611,26.206,26.206,0,0,0,2.76,5.323,5.084,5.084,0,0,0,2.044,1.978,5.677,5.677,0,0,0,2.62.245c1.24-.079,2.69-.279,3.306-1.358.393-.69.332-1.576.76-2.24a8.917,8.917,0,0,1,.821-.9,5.864,5.864,0,0,0,1.013-1.987,74.5,74.5,0,0,0,2.721-9.939,16.1,16.1,0,0,1,.873-3.332,19.009,19.009,0,0,1,1.659-2.734,31.209,31.209,0,0,0,2.817-5.31,14.516,14.516,0,0,1-4.681-2.127c-1.354-.873-3.354-2.8-4.8-3.493C563.381,356.936,563.774,358.474,563,359.5Z" transform="translate(-548.252 -301.239)" fill="#f86d70"/>
        <circle id="Ellipse_86" data-name="Ellipse 86" cx="0.913" cy="0.913" r="0.913" transform="translate(18.173 58.693)" fill="#3f3d56"/>
        <circle id="Ellipse_87" data-name="Ellipse 87" cx="0.913" cy="0.913" r="0.913" transform="translate(15.317 63.152)" fill="#3f3d56"/>
        <circle id="Ellipse_88" data-name="Ellipse 88" cx="0.913" cy="0.913" r="0.913" transform="translate(12.348 67.724)" fill="#3f3d56"/>
        <path id="Path_120" data-name="Path 120" d="M652.665,373.107h-8.358c-.1-.568-.035-1.21-.406-1.646a4.856,4.856,0,0,0,.031,1.332c.022.1.048.21.074.314H633.377a16.952,16.952,0,0,1,.38-3.987,36.931,36.931,0,0,0,.607-5.8c.052-2.406-.127-4.8-.14-7.209a52.394,52.394,0,0,1,.458-7.118,22.5,22.5,0,0,0,.362-6.55c-.4-2.415-.738-4.86-1.044-7.288a8.135,8.135,0,0,0-.306-1.585,10.352,10.352,0,0,0-.437-1.061,16.335,16.335,0,0,1-1.415-5.559c-.061-.725-1.087-1.38-1.074-2.113,1.4-.284,3.891-.633,5.24-.148s2.345,1.677,3.7,2.127,2.786.122,4.1.563a1.092,1.092,0,0,1,.677.48.873.873,0,0,1-.511,1.1,2.555,2.555,0,0,1-1.31.1q2.183,1.594,4.236,3.362a4.463,4.463,0,0,1,1.188,1.358,4.65,4.65,0,0,1,.323,2.022c0,.8,0,1.6.022,2.406,0,1.546.777,2.969,1.048,4.489.341,1.921.511,3.865.668,5.808.092,1.131.179,2.262.227,3.4.087,2.183.467,4.367.5,6.528,0,.672,0,1.349.061,2.017a19.633,19.633,0,0,0,.288,1.952c.253,1.4.506,2.808.764,4.21a5.682,5.682,0,0,1,.122,1.114,6.275,6.275,0,0,0-.039,1.616,4.677,4.677,0,0,0,.258.659A7.315,7.315,0,0,1,652.665,373.107Z" transform="translate(-592.889 -283.611)" fill="#f86d70"/>
        <ellipse id="Ellipse_89" data-name="Ellipse 89" cx="12.345" cy="4.799" rx="12.345" ry="4.799" transform="translate(17.772 4.694)" fill="#3f3d56"/>
        <path id="Path_121" data-name="Path 121" d="M620.681,263.254a4.005,4.005,0,0,0-5.4,1.8c-1.493,3.982,1.31,6.314,3,7.314a4.152,4.152,0,0,0,2.118.581,4.061,4.061,0,0,0,1.576-.31,6.79,6.79,0,0,0,4.249-5.24C626.912,262.01,620.681,263.254,620.681,263.254Zm4.044,4.236a5.677,5.677,0,0,1-3.454,4.367,3.3,3.3,0,0,1-3-.227c-1.376-.83-3.651-2.777-2.437-6.092a3.215,3.215,0,0,1,4.367-1.5C620.222,264.031,625.288,262.992,624.724,267.49Z" transform="translate(-583.927 -248.914)" fill="#f86d70"/>
        <path id="Path_122" data-name="Path 122" d="M621.034,265.121s5.065-1.039,4.5,3.458a5.677,5.677,0,0,1-3.454,4.367,3.3,3.3,0,0,1-1.279.258h0a3.284,3.284,0,0,1-1.721-.485c-1.376-.83-3.651-2.777-2.437-6.092A3.233,3.233,0,0,1,621.034,265.121Z" transform="translate(-584.739 -250.003)" fill="#3f3d56"/>
        <path id="Path_123" data-name="Path 123" d="M621.034,265.121s5.065-1.039,4.5,3.458a5.677,5.677,0,0,1-3.454,4.367,3.3,3.3,0,0,1-1.279.258h0a3.284,3.284,0,0,1-1.721-.485c-1.376-.83-3.651-2.777-2.437-6.092A3.233,3.233,0,0,1,621.034,265.121Z" transform="translate(-584.739 -250.003)" opacity="0.1" fill="url(#radial-gradient)"/>
        <path id="Path_124" data-name="Path 124" d="M582.051,267.418a6.79,6.79,0,0,0,4.249,5.24,4.061,4.061,0,0,0,1.576.31,4.152,4.152,0,0,0,2.118-.581c1.695-1,4.489-3.332,3-7.314a4.005,4.005,0,0,0-5.4-1.8C587.593,263.265,581.361,262.021,582.051,267.418Zm6-3.375a3.2,3.2,0,0,1,4.367,1.5c1.214,3.314-1.061,5.24-2.437,6.092a3.3,3.3,0,0,1-3,.227,5.677,5.677,0,0,1-3.454-4.367C582.986,263,588.051,264.043,588.051,264.043Z" transform="translate(-565.415 -248.925)" fill="#f86d70"/>
        <path id="Path_125" data-name="Path 125" d="M590,265.121s-5.065-1.039-4.5,3.458a5.677,5.677,0,0,0,3.454,4.367,3.3,3.3,0,0,0,1.279.258h0a3.284,3.284,0,0,0,1.721-.485c1.375-.83,3.651-2.777,2.437-6.092A3.233,3.233,0,0,0,590,265.121Z" transform="translate(-567.36 -250.003)" fill="#3f3d56"/>
        <path id="Path_126" data-name="Path 126" d="M590,265.121s-5.065-1.039-4.5,3.458a5.677,5.677,0,0,0,3.454,4.367,3.3,3.3,0,0,0,1.279.258h0a3.284,3.284,0,0,0,1.721-.485c1.375-.83,3.651-2.777,2.437-6.092A3.233,3.233,0,0,0,590,265.121Z" transform="translate(-567.36 -250.003)" opacity="0.1" fill="url(#radial-gradient-2)"/>
      </g>
    </g>
  </g>
</svg>
